<?xml version="1.0" encoding="utf-8"?>
<!-- Generator: Adobe Illustrator 16.0.0, SVG Export Plug-In . SVG Version: 6.00 Build 0)  -->
<!DOCTYPE svg PUBLIC "-//W3C//DTD SVG 1.1//EN" "http://www.w3.org/Graphics/SVG/1.1/DTD/svg11.dtd">
<svg version="1.1" id="Layer_1" xmlns="http://www.w3.org/2000/svg" xmlns:xlink="http://www.w3.org/1999/xlink" x="0px" y="0px"
	 width="652.015px" height="219.523px" viewBox="0 0 652.015 219.523" enable-background="new 0 0 652.015 219.523"
	 xml:space="preserve">
<g>
	<path d="M24.164,131.326l6.16,4.369c3.621,1.787,5.767,0.58,8.727-0.787c4.796-2.213,9.064-5.402,13.706-8.062
		c8.813-5.049,28.655-13.859,40.065-13.854c8.793,0.004,23.468,0.973,30.734-1.895c4.508-1.777,2.503-2.358,8.492-2.353
		c8.986,0.01,24.476-0.692,32.184,0.436c14.938,2.185,25.854,11.468,31.705,22.169c1.807,3.307,1.524,4.791,2.272,8.594
		c3.832,19.482-2.73,39.648-12.525,55.693c-1.106,1.812-0.845,1.764-2.777,2.826c-2.376,1.305-4.697,2.625-6.998,3.895
		c-2.41,1.328-4.512,2.574-6.981,3.92c-1.055,0.574-2.328,1.312-3.395,1.895c-4.668,2.529-3.403,1.668-3.381,9.102h52.741
		c2.95-5.676,20.496-30.902,25.337-38.072c1.115-1.65,3.247-5.029,4.638-5.953c1.718-1.143,5.29-3.236,7.188-3.877l-2.156,12.172
		l7.05-3.842L254.89,190c2.508-0.939,4.644-2.945,7.135-3.691l-2.139,12.104l7.112-3.867c-0.162,1.445-1.907,4.396-2.645,5.672
		c-1.263,2.186-14.441,7.615-17.09,8.979l-0.659,9.146l48.353,0.01l2.834-8.736l7.427-0.283c-0.4-3.219-5.925-7.91-6.19-9.891
		l7.69-0.186c-0.384-1.143-2.636-3.893-3.437-4.957c-0.726-0.963-3.146-3.961-3.449-4.979l7.68-0.154
		c-0.053-0.932-0.768-1.475-1.432-2.338c-0.68-0.883-1.201-1.686-1.824-2.529c-0.783-1.066-3.233-3.619-2.946-5.027l7.711-0.172
		c-1.063-3.408-5.735-6.561-6.876-9.877l7.664-0.236c-0.355-2.531-5.787-6.977-6.721-9.906l7.514-0.158
		c0.1-1.535-6.303-8.021-6.668-9.967l7.604-0.197c-0.363-1.898-5.818-7.408-6.767-9.881l7.604-0.211
		c-0.08-0.578-5.123-7.537-5.83-8.328c2.209,1.391,4.371,2.754,6.351,4.178l1.521-5.889l2.211-0.1
		c-0.055,1.795-0.573,5.93-0.073,7.355c1.976-0.627,4.712-3.971,6.774-4.596c2.234,10.969,3.991,22.16,5.413,33.465
		c0.824,6.555,3.92,30.229,3.379,35.348l-17.95,11.346l0.359,7.451l46.918-0.43c3.959-5.762,13.881-27.799,16.467-30.303
		l-0.094,7.266c2.373-0.893,4.342-3.695,6.523-4.57l-0.451,12.297c1.637-0.553,4.775-3.691,6.535-4.705l-0.105,5.414
		c-2.564,2.061-6.562,3.627-9.254,5.693c0.029,1.205,1.674,7.107,2.217,8.172c3.459,0.629,42.607-0.242,47.783-0.205l-1-12.117
		l6.562-1.082c-1.74-3.01-5.672-4.535-7.646-8.131c0.805-0.154,1.789-0.326,2.656-0.463c1.76-0.273,1.496-0.129,2.35-1.117
		c-1.105-1.918-7.258-6.342-7.967-8.094c1.01-0.488,2.555-0.564,3.814-0.764c0.51-0.08,1.721-0.236,2.148-0.4l1.482-1.014
		c-1.988-2.379-5.615-5.672-8.209-7.732c1.17-0.957,4.393-0.715,7.172-2.229c-1.205-1.701-7.609-6.572-7.889-8.406
		c0.352-0.295,0.09-0.178,0.664-0.424c0.57-0.244-0.062-0.041,0.74-0.23l5.43-0.838c-1.275-3.449-7.545-6.264-7.895-9.416
		c-0.514-4.602-0.693-12.146-0.525-16.795c0.283-7.803-0.969-16.553-1.779-24.27c-0.111-1.061,0.119-4.491,0.51-3.158
		c0.42,1.43,0.949,1.395,1.693,3.832c4.471,14.602,8.803,27.961,13.752,44.543c1.104,3.676,2.338,8.254,3.691,11.598l0.01-33.691
		c0.777,0.709,0.965,1.709,1.295,2.764l10.234,31.467c1.033,3.287,2.486,8.572,3.783,11.365l0.115-35.693
		c2.645,7.539,4.877,15.398,7.242,23.166c1.145,3.746,6.205,21.801,7.396,23.508l0.102-34.752
		c0.107,0.752,14.945,48.373,15.363,49.021l0.051-40.861c0.525,0.773,13.652,42.307,13.852,44.105
		c0.99-4.871-0.129-33.264,0.24-41.354c2.158,3.613,11.779,40.586,13.939,43.768l0.037-44.326
		c1.58,2.105,11.148,35.469,13.908,44.012l0.758,1.564l0.064-45.115c1.482,2.854,10.891,33.27,12.77,39.309
		c0.488,1.574,1.6,4.332,1.869,5.574l0.094-43.188l1.113,2.479c1.869,5.801,11.688,36.633,12.887,38.453l0.043-43.957l13.854,41.973
		l0.172-44.096c1.383,2.805,10.334,31.816,12.041,37.734l0.832,2.115c0.053,0.076,0.145,0.164,0.189,0.225
		c0.047,0.062,0.127,0.156,0.199,0.225c0.182-12.617-0.363-25.268-0.561-37.875c-0.016-0.939-0.035-1.875-0.059-2.814
		c-0.066-2.635,0.004-1.973,0.469-2.424c1.084,1.514,9.268,32.68,11.189,39.797l0.992,2.584c0.586-5.768,3.422-43.711,4.316-45.865
		c2.092-0.166,1.473,1.078,2.055,4.211l7.283,37.568c0.27,0.576,0.145,0.354,0.465,0.729l5.4-44.09l9.697,38.963
		c1.578-3.402,1.727-41.074,3.121-44.033c2.389,4.541,11.018,33.998,13.084,36.885l-0.562-32.576
		c0.408,1.369,1.564,4.188,2.074,5.799c1.283,4.061,4.898,16.363,6.383,18.803c4.49-15.9-2.721-35.656-9.918-45.762
		c-27.646-38.823-78.988-43.643-125.104-50.172c-32.775-4.642-55.076-23.883-83.279-40.057
		c-28.213-16.178-58.967-29.733-93.543-37.813c-3.721-0.869-7.572-2.247-11.4-3.23c-28.411-7.295-49.784-5.157-77.685,1.024
		c-16.445,3.643-29.474,8.632-42.979,15.545c-25.684,13.146-51.971,25.956-77.731,39.013c-12.77,6.472-25.965,13.283-38.916,19.607
		c-18.171,8.873-38.799,20.435-53.75,34.041c-1.102,1.004-2.627,2.322-3.848,3.316c-1.325,1.078-2.633,2.453-3.886,3.582
		C24.197,125.318,23.993,124.904,24.164,131.326z"/>
	<path fill="#FFFFFF" d="M111.613,80.94c-8.634,2.374-4.682,13.836,3.691,11.624C123.525,90.392,120.133,78.597,111.613,80.94z"/>
	<path d="M111.981,89.858c2.23,0,4.05-1.415,4.05-3.149c0-1.735-1.819-3.15-4.05-3.15s-4.05,1.415-4.05,3.15
		S109.751,89.858,111.981,89.858z"/>
</g>
</svg>
