<?xml version="1.0" encoding="utf-8"?>
<!-- Generator: Adobe Illustrator 16.0.0, SVG Export Plug-In . SVG Version: 6.00 Build 0)  -->
<!DOCTYPE svg PUBLIC "-//W3C//DTD SVG 1.1//EN" "http://www.w3.org/Graphics/SVG/1.1/DTD/svg11.dtd">
<svg version="1.1" id="Layer_1" xmlns="http://www.w3.org/2000/svg" xmlns:xlink="http://www.w3.org/1999/xlink" x="0px" y="0px"
	 width="652.015px" height="219.523px" viewBox="0 0 652.015 219.523" enable-background="new 0 0 652.015 219.523"
	 xml:space="preserve">
<g>
	<path d="M17.106,130.508c1.371,0.305,3.864,1.893,4.382,3.152c4.194,3.002,6.133,2.492,10.512,0.469
		c4.475-2.064,4.367-2.443,8.791-5.197c5.475-3.406,12.075-6.77,18.565-9.445c6.648-2.74,13.59-5.205,21.045-6.98
		c8.652-2.059,27.252,2.758,38.638-3.391c2.743-1.481,2.027-1.156,5.647-1.149c10.417,0.021,24.862-1.032,34.376,0.751
		c8.075,1.515,14.023,5,19.028,8.991c3.688,2.939,10.266,9.971,12.196,15.76c-1.053,1.004-2.608,1.818-3.171,2.951
		c1.038,0.209,2.282,0.518,3.43,0.887c1.526,0.49,1.682,1.076,1.836,2.783c-0.887,0.367-7.408,5.223-8.125,6.049l6.579,1.449
		c-1.064,1.207-3.522,2.773-4.922,3.807c-1.813,1.338-3.475,2.617-5.162,3.805c1.479,1.193,5.229,1.59,7.331,2.322
		c-1.634,1.391-3.303,2.576-4.993,3.814c-1.523,1.115-3.819,2.564-5.068,3.859c1.041,0.742,5.631,1.793,7.176,2.088
		c-0.467,0.852,0.05,0.082-0.475,0.623l-1.972,1.49c-1.881,1.414-6.397,4.168-7.525,5.76l7.128,2.105
		c-1.634,2.41-7.783,5.342-9.985,7.877l7.839,2.025l-1.196,1.24c-2.761,2.111-6.272,4.125-8.78,6.592l7.942,2.109
		c-3.149,2.227-20.044,10.354-23.546,12.008l-0.036,9.246l54.048,0.021l1.402-4.836l6.851,4.031l-1.196-12.359
		c2.525,0.832,4.454,2.949,6.894,3.75l-1.295-12.229c2.617,0.889,4.399,2.854,6.908,3.723l-1.297-12.242
		c2.583,0.781,4.382,2.896,6.877,3.766l-1.269-12.277l6.83,3.875l-1.219-12.354l6.829,3.861l-0.767-11.773
		c1.878,2.268,13.858,23.061,15.778,26.303c1.672,2.824,4.307,6.178,4.672,9.943c-0.922,0.338-13.753,9.471-14.613,10.459
		l-0.016,7.561l46.339,0.098c0.32-2.922-0.34-46.164-0.31-51.24c0.052-8.508-0.019-17.086,0.356-25.549
		c0.236-5.297,0.058-6.76,3.777-9.104l9.125-3.988l0.438,1.156c0.023,0.059,0.072,0.17,0.092,0.217s0.05,0.15,0.094,0.215l2.447-1.6
		c1.167,1.051,3.336,3.83,4.029,5.328l-2.672,2.695c2.849,1.078,4.924,0.494,6.19,3.547c-1.329,1.924-4.024,3.742-5.796,5.447
		c-0.207,0.199-0.219,0.176-0.445,0.488c-0.406,0.564-0.07-0.104-0.326,0.602l6.724,1.441c-1.343,2.451-6.813,5.418-8.246,7.896
		l7.728,2.162c-1.627,2.115-7.512,6.262-8.367,8.035c1.817,0.426,6.619,1.264,7.66,2.254c-1.863,1.939-7.297,5.848-8.315,7.766
		l7.749,2.061c-2.008,2.453-6.934,5.732-8.268,7.918l8.289,2.119l-0.789,1.111c-2.287,2.127-5.582,4.27-7.359,6.73
		c1.127,0.736,2.847,0.918,4.141,1.23l4.123,1.344l-9.686,5.482c0.466,1.057,1.143,1.42,1.898,2.217
		c-0.998,1.357-8.352,5.15-9.701,5.883l-0.434,7.691l43.029,0.131l1.197-4.135c0.184-0.393,0.215-0.416,0.377-0.621l6.674,3.908
		l-1.213-12.381l6.867,3.906l-1.258-12.422l6.861,3.959l-1.201-11.992c2.756,0.682,4.801,2.764,6.891,3.369l-1.029-9.736
		l3.242,1.697l-0.064-2.229c0.898,0.797,12.578,18.898,12.881,19.9c-3.512,1.496-8.996,5.332-12.504,7.363
		c0.371,2.068,1.51,6.855,2.496,8.303l45.283-0.336c0.055-9.061-0.674-19.309-1.143-28.262c-0.506-9.615-0.555-19.129-1.143-28.67
		c-0.859-13.982-0.736-28.176-2.045-42.164c-0.371-3.988-1.438-9.691-1.412-13.389c0.678,1.271,0.906,3.093,1.354,4.62
		c0.42,1.431,0.949,1.396,1.695,3.832c1.801,5.885,7.088,23.582,9.66,27.051l0.104-31.733c4.094,11.157,7.559,23.995,11.037,35.579
		c1.104,3.676,2.336,8.254,3.689,11.598l0.012-33.691c0.775,0.709,0.965,1.709,1.295,2.764l10.232,31.467
		c1.033,3.287,2.488,8.572,3.783,11.365l0.117-35.693c2.643,7.539,4.877,15.398,7.242,23.166c1.143,3.748,6.205,21.803,7.396,23.51
		l0.104-34.754c0.105,0.748,14.939,48.369,15.361,49.023l0.053-40.861c0.523,0.775,13.65,42.305,13.85,44.105
		c0.992-4.871-0.129-33.264,0.242-41.354c2.158,3.613,11.779,40.584,13.938,43.768l0.035-44.326
		c1.582,2.104,11.15,35.469,13.91,44.012l0.758,1.564l0.064-45.115c1.482,2.854,10.893,33.27,12.77,39.307
		c0.49,1.576,1.6,4.332,1.871,5.576l0.092-43.188l1.113,2.479c1.869,5.799,11.688,36.631,12.887,38.453L557.989,154l13.854,41.971
		l0.172-44.094c1.299,2.633,2.436,7.043,3.348,10.01l8.77,27.959c0.264,0.904,0.492,1.848,1.105,2.535
		c0.342-6.438-1.008-38.881-0.588-42.143c0.252-1.961-0.135-0.586,0.479-1.178c1.084,1.512,9.266,32.678,11.189,39.795l0.992,2.584
		c0.586-5.768,3.422-43.709,4.318-45.865c2.09-0.168,1.471,1.078,2.053,4.209l7.285,37.57c0.268,0.576,0.143,0.354,0.463,0.727
		l5.4-44.088l9.695,38.961c1.576-3.396,1.729-41.076,3.121-44.033c2.389,4.543,11.018,33.998,13.084,36.887l-0.531-31.672
		c1.418,1.254,1.789,4.109,2.342,5.828c1.24,3.869,4.646,15.51,6.084,17.869c4.488-15.898-2.719-35.654-9.918-45.764
		c-27.646-38.823-78.975-43.64-125.104-50.171c-16.668-2.36-33.15-5.081-48.881-9.339c-16.109-4.358-28.561-9.676-41.449-17.066
		c-28.209-16.174-58.963-29.73-93.539-37.81c-3.721-0.869-7.572-2.247-11.4-3.23c-28.412-7.295-49.785-5.157-77.685,1.024
		c-16.445,3.643-29.474,8.632-42.979,15.545c-12.922,6.613-25.84,13.01-38.949,19.579c-13.092,6.561-25.774,12.841-38.782,19.434
		c-12.77,6.472-25.965,13.283-38.916,19.607c-6.295,3.073-13.248,6.524-19.324,9.941c-9.643,5.422-17.885,11.118-26.361,17.534
		c-4.123,3.121-7.877,6.598-11.912,9.879l-7.578,7.057C16.604,125.381,17.07,128.447,17.106,130.508z"/>
	<path fill="#FEAFF9" d="M21.489,133.66c-0.519-1.26-3.011-2.848-4.382-3.152c0.33,1.205-2.907,7.41-3.646,9.068
		c-6.899,15.477-11.518,36.33-12.956,53.309c-0.363,4.281-0.546,8.451-0.494,12.777c0.018,1.482,0.028,10.693,0.737,12.141
		l2.267-23.922c1.824-16.658,6.236-37.258,12.82-52.562C17.322,137.857,17.927,135.09,21.489,133.66z"/>
	<path fill="#FFFFFF" d="M104.562,80.16c-8.634,2.374-4.682,13.836,3.691,11.624C116.476,89.613,113.083,77.818,104.562,80.16z"/>
	<path d="M104.932,90.52c2.23,0,4.05-1.415,4.05-3.15s-1.819-3.15-4.05-3.15s-4.05,1.415-4.05,3.15S102.702,90.52,104.932,90.52z"/>
</g>
</svg>
