<?xml version="1.0" encoding="utf-8"?>
<!-- Generator: Adobe Illustrator 16.0.0, SVG Export Plug-In . SVG Version: 6.00 Build 0)  -->
<svg version="1.2" baseProfile="tiny" id="Layer_1" xmlns="http://www.w3.org/2000/svg" xmlns:xlink="http://www.w3.org/1999/xlink"
	 x="0px" y="0px" width="432.438px" height="431.398px" viewBox="0 0 432.438 431.398" xml:space="preserve">
<path fill-rule="evenodd" fill="#0D8FC9" d="M59.898,356.701l-27.817-12.45c3.372-15.202,19.019-34.658,30.019-40.6
	c18.24-9.854,42.277-5.836,64.355-5.084c-21.982,13.361-27.16-4.069-54.43,38.457C68.59,342.382,63.452,353.312,59.898,356.701
	 M296.43,66.168c-0.025-16.017-0.552-22.926,8.263-33.029c5.132-5.881,13.466-13.925,21.285-18.387
	c3.872,2.877,6.469,7.337,8.711,12.194c-6.766,5.837-21.707,19.738-26.154,29.159c-5.99,12.69-7.064,28.565-11.721,42.246
	L296.43,66.168z M226.388,98.96c-4.706,0.312-1.657,1.483-6.247-0.443c-4.119,6.461-2.952-0.163-6.386,4.041l-0.726,2.008
	c-0.077-0.279-0.306,0.856-0.238,1.287c-0.448,0.198-1.822-4.983-0.168,1.007l3.108,3.358c13.458,1.719,58.713,20.56,63.213,28.16
	c7.649,2.892,14.5,8.789,17.673,15.246c1.527,0.863,0.287-0.212,2.156,1.675c0.332,0.333,1.763,2.134,1.895,2.327
	c10.324,15.081-1.884,27.558-13.791,37.151c-17.957,21.091-38.844,40.022-57.204,60.342c-9.746,10.786-17.226,22.141-38.565,19.389
	c-27.942-3.603-61.866-21.311-70.801-46.79c-7.513-21.42,5.355-30.725,14.889-40.662c19.341-20.153,36.386-40.601,56.254-60.644
	c-5.214-4.46-7.376-1.706-11.779,2.162c-7.823,6.874,2.45-2.856-8.489,3.31c1.633,5.002-1.171,1.088,2.659,4.743l-4.794,4.447
	c-0.054,0.125-0.165,0.488-0.219,0.594l-3.842,3.375c-0.164,0.115-0.542,0.347-0.716,0.474c-8.162,5.938-0.324,4.813-13.687,4.943
	c-2.3,0.731,0.207-0.62-2.344,1.273l-21.174,22.766c-4.921,5.669-20.006,19.799-22.4,26.064
	c-8.384,21.931,14.252,55.735,15.401,76.84c-22.414-11.991-32.358-13.979-62.571-7.853C42.256,272.641,13.121,283.33,0,289.931
	c4.066,9.12,10.589,20.622,15.579,29.33c12.932,22.572,5.807,10.614,2.968,32.1c11.219,8.061,45.074,21.171,55.252,28.688
	c5.495,4.057,9.548,8.507,15.015,12.958c10.68,8.69,18.678,16.177,32.476,23.434c6.987,3.675,32.167,16.372,39.081,14.828
	c3.785-18.368,5.9-41.941,8.244-60.833c5.516-44.452-8.986-42.174-5.725-55.726c11.406,3.876,24.848,7.107,36.78,10.088
	c16.316,4.073,25.87,5.716,37.381-3.575l46.553-47.529c4.216-4.35,7.377-7.616,11.501-12.03
	c11.771-12.592,19.592-17.486,34.24-36.315c8.985-11.546,4.259-21.33,0.602-36.743c-2.985-12.581-7.958-26.199-9.771-37.645
	c21.681,4.252,38.396,10.922,62.803,6.044c24.095-4.814,35.236-15.942,49.46-21.351c-2.035-6.994-18.967-28.571-23.919-35.917
	c-18.114-26.867-30.295-42.343-49.922-67.625c-6.011-7.742-20.414-27.4-26.739-32.111c-30.077,14.741-3.844,16.243-48.595,1.571
	c-19.214,44.816-10.48,68.419-2.93,117.469C269.132,115.627,234.865,98.526,226.388,98.96"/>
<path fill-rule="evenodd" fill="#C7E7F6" d="M158.483,242.45c11.541-7.764,20.176,9.182,10.293,15.051
	C158.636,263.521,147.662,249.732,158.483,242.45 M202.835,230.906c6.744,8.686,4.32,14.736-7.51,12.918
	c-3.09-4.973-2.976-6.398-0.857-12.062L202.835,230.906z M147.815,206.047c1.886,9.166-1.521,17.928-12.048,13.754
	c-10.114-4.007-3.839-13.52-1.596-16.997C143.269,201.429,142.657,202.33,147.815,206.047 M171.736,189.48
	c17.282-8.656,28.606,16.661,12.741,24.827C168.489,222.539,154.25,198.237,171.736,189.48 M179.169,174.82
	c-2.042-12.531,4.64-14.21,12.882-7.445C192.056,178.159,186.805,179.482,179.169,174.82 M191.45,126.412
	c-19.868,20.042-36.914,40.49-56.254,60.644c-9.534,9.937-22.402,19.241-14.889,40.662c8.935,25.479,42.859,43.188,70.801,46.79
	c21.339,2.752,28.819-8.604,38.565-19.39c18.359-20.32,39.247-39.25,57.204-60.341l-2.312-1.462
	c-0.335-0.172-1.495-0.778-1.796-0.861c-6.781-1.877-1.544,0.465-1.946,0.632c-1.788,0.745,7.077,2.724-2.488,0.498
	c-0.87-0.201-2.147-1.224-3.32-1.972l0.559,2.611c-0.842,2.528-1.24,1.95-3.037,2.554c-6.036,2.023-8.138-0.785-3.896-0.755
	c-0.268,0.323-0.542,0.792-0.728,1.028c-0.182,0.236-0.52,0.724-0.748,1.004c-5.332,6.516-6.596,4.825-6.607,4.83l-4.561,13.807
	c-5.36,3.175-7.64,2.694-8.912-2.534l-1.452,2.091c-7.973,9.062-9.737-2.83-7.863,6.242c-0.291-0.281-0.728-0.615-0.903-0.806
	c-0.166-0.183-0.643-0.576-0.828-0.806c-1.073-1.312-2.554,0.625-1.689-6.722c-5.031,0.61-6.084,0.943-9.803-0.982
	c3.63-1.396,2.632-1.08,0.784-2.829c-3.635-3.441-5.175-5.382-4.979-8.185l0.436-2.628c0.041-0.261,0.118-0.74,0.158-1.002
	c1.451-9.477,1.955-4.089,3.356-7.676l0.052-2.612c0.516-3.391,2.186-4.316,2.879-6.17c1.385-3.708,1.989-2.89-2.687-4.18
	c0.33-0.21,0.88-0.338,1.088-0.439c0.197-0.094,0.792-0.321,1.011-0.438c3.678-1.97,2.256,0.837,2.396-3.727l-0.085-1.52
	c0.408,0.273,1.261,0.376,1.525,0.403c9.051,0.907,6.569-5.11,6.537-5.589c-0.923-10.23-1.684-16.682,6.884-20.893
	c10.091-4.962,13.552,1.712,18.925,4.666c5.406-1.556,1.341-6.192,6.56-8.468c5.552-2.421,0.362-0.66,2.674,0.094l5.329,3.861
	c0.071-0.198,0.443,0.269,0.6,0.467c-0.792-3.816-0.337-3.469,0.957-7.933c-4.499-7.6-49.756-26.44-63.214-28.159
	C204.283,109.923,196.972,120.622,191.45,126.412"/>
<path fill-rule="evenodd" fill="#FEFEFE" d="M59.898,356.7c3.554-3.388,8.692-14.318,12.126-19.676
	c27.27-42.526,32.448-25.096,54.431-38.457c-22.078-0.752-46.116-4.769-64.355,5.084c-11,5.941-26.647,25.397-30.019,40.6
	L59.898,356.7z"/>
<path fill-rule="evenodd" fill="#C7E4F6" d="M286.279,169.236c0.42,2.96,3.573,7.73-0.337,11.326
	c-4.221,3.882-8.577,0.385-11.051-1.91l0.074,5.122c-4.807-1.528-5.664,1.238-8.715,4.415l-3.078,1.584
	c-1.708,0.156,2.475-1.891-2.908-0.12c0.865,4.891-1.236,0.082,1.374,2.731c0.525,0.535,1.722,1.321,1.894,0.948
	c0.14-0.299,0.774,0.155,1.143,0.293l-7.968,0.311c-1.125-0.074-0.954-1.465-3.308,0.952c1.243,7.398,1.663,17.309-9.725,15.896
	c-10.967-1.362-6.879-12.246-5.28-16.811c2.019-6.065,2.391-5.6-0.62-11.23c3.773,0.939,0.825,0.298,3.453,2.121
	c8.152,5.65-4.299-1.102,2.428,1.849l1.058-11.393l-3.517-4.692l-4.179-4.045c0.031,0.479,2.512,6.495-6.539,5.589
	c-0.264-0.028-1.116-0.13-1.524-0.403l0.085,1.519c-0.141,4.565,1.281,1.758-2.396,3.728c-0.219,0.116-0.815,0.344-1.011,0.438
	c-0.208,0.1-0.76,0.229-1.089,0.439c4.676,1.29,4.071,0.472,2.686,4.179c-0.692,1.855-2.363,2.78-2.878,6.171l-0.052,2.611
	c-1.402,3.588-1.905-1.8-3.357,7.677c-0.04,0.262-0.116,0.741-0.158,1.001l-0.435,2.629c-0.197,2.803,1.343,4.744,4.979,8.185
	c1.849,1.749,2.847,1.433-0.784,2.828c3.72,1.926,4.771,1.593,9.804,0.983c-0.865,7.346,0.616,5.409,1.688,6.721
	c0.187,0.23,0.661,0.625,0.828,0.807c0.176,0.19,0.613,0.523,0.903,0.806c-1.874-9.072-0.109,2.819,7.864-6.242l1.45-2.091
	c1.273,5.229,3.554,5.709,8.913,2.533l4.562-13.807c0.01-0.005,1.273,1.686,6.605-4.83c0.23-0.28,0.567-0.767,0.749-1.004
	c0.187-0.236,0.46-0.705,0.728-1.027c-4.241-0.03-2.14,2.778,3.896,0.755c1.797-0.604,2.194-0.026,3.036-2.554l-0.557-2.612
	c1.172,0.749,2.45,1.772,3.319,1.973c9.565,2.226,0.7,0.246,2.488-0.499c0.403-0.166-4.836-2.508,1.946-0.631
	c0.301,0.083,1.46,0.689,1.796,0.861l2.312,1.462c11.908-9.593,24.116-22.07,13.792-37.152c-0.132-0.193-1.562-1.993-1.894-2.326
	c-1.87-1.888-0.629-0.813-2.157-1.676c-5.417,0.74-0.007-2.804-3.419,1.773c1.368,1.849,5.182,2.879-2.502,11.329
	c-4.287-5.646,3.171,6.527-1.174-3.672l-1.173-2.209C286.891,170.46,284.814,160.594,286.279,169.236"/>
<path fill-rule="evenodd" fill="#C6E1F6" d="M262.825,150.356c4.097,18.17-4.046,24.638-21.629,20.273l3.517,4.692l-1.058,11.393
	c-6.727-2.952,5.725,3.801-2.428-1.849c-2.628-1.823,0.32-1.183-3.453-2.122c3.011,5.631,2.639,5.166,0.62,11.229
	c8.403-2.592,8.009-1.833,15.005,0.915c2.353-2.416,2.182-1.026,3.307-0.951l7.969-0.311c-0.368-0.139-1.003-0.592-1.143-0.293
	c-0.172,0.373-1.368-0.414-1.894-0.948c-2.61-2.65-0.509,2.16-1.374-2.731c5.383-1.771,1.2,0.276,2.908,0.119l3.079-1.583
	c3.05-3.178,3.907-5.944,8.714-4.416l-0.074-5.122c-0.65-6.059-0.106-6.07,2.148-9.983l9.239,0.568
	c-1.465-8.642,0.611,1.224,2.07-8.392l1.173,2.209c4.345,10.198-3.113-1.975,1.174,3.672c7.684-8.451,3.87-9.48,2.502-11.33
	c3.412-4.576-1.998-1.033,3.419-1.772c-3.172-6.457-10.023-12.354-17.674-15.247c-1.293,4.464-1.748,4.117-0.957,7.933
	c-0.156-0.197-0.526-0.665-0.599-0.467l-5.328-3.861c-2.313-0.754,2.877-2.514-2.674-0.094
	C264.167,144.164,268.23,148.8,262.825,150.356"/>
<path fill-rule="evenodd" fill="#FEFEFE" d="M296.43,66.168l0.384,32.182c4.656-13.68,5.729-29.555,11.721-42.246
	c4.447-9.42,19.389-23.321,26.154-29.159c-2.242-4.856-4.839-9.317-8.711-12.194c-7.819,4.463-16.153,12.507-21.284,18.388
	C295.878,43.242,296.404,50.151,296.43,66.168"/>
<path fill-rule="evenodd" fill="#0D8EC6" d="M150.583,150.46c13.362-0.13,5.525,0.995,13.687-4.943
	c0.174-0.127,0.552-0.359,0.715-0.474l3.843-3.375c0.054-0.107,0.165-0.469,0.219-0.594l4.794-4.447
	c-3.831-3.655-1.026,0.259-2.659-4.744c10.939-6.165,0.665,3.565,8.489-3.309c4.403-3.868,6.565-6.622,11.779-2.162
	c5.522-5.79,12.833-16.489,24.28-16.194l-3.107-3.358c-1.654-5.99-0.28-0.809,0.168-1.007c-0.068-0.431,0.161-1.566,0.238-1.287
	l0.725-2.009c3.435-4.203,2.268,2.421,6.387-4.04c4.589,1.926,1.541,0.755,6.247,0.443c-0.313-0.261-0.802-1.037-0.979-0.731
	c-0.179,0.304-0.742-0.561-0.994-0.69c-0.451-0.229-2.828-1.343-3.309-1.477c-2.141-0.592-6.039-0.684-8.298-0.552
	c-18.602,1.094-39.325,28.369-53.808,44.824C153.189,146.937,153.248,144.322,150.583,150.46"/>
<path fill-rule="evenodd" fill="#FF00A4" d="M237.018,166.583l4.179,4.046c17.584,4.365,25.725-2.103,21.629-20.273
	c-5.373-2.954-8.834-9.628-18.925-4.666C235.333,149.901,236.095,156.353,237.018,166.583"/>
<path fill-rule="evenodd" fill="#FF00A4" d="M171.736,189.479c-17.486,8.758-3.247,33.06,12.741,24.827
	C200.341,206.141,189.017,180.825,171.736,189.479"/>
<path fill-rule="evenodd" fill="#FF00A4" d="M238.395,193.973c-1.6,4.565-5.687,15.45,5.28,16.811
	c11.388,1.413,10.968-8.498,9.725-15.896C246.403,192.14,246.798,191.381,238.395,193.973"/>
<path fill-rule="evenodd" fill="#FF00A4" d="M158.483,242.45c-10.821,7.282,0.153,21.07,10.293,15.051
	C178.659,251.633,170.024,234.686,158.483,242.45"/>
<path fill-rule="evenodd" fill="#FF00A4" d="M147.815,206.047c-5.158-3.717-4.546-4.618-13.644-3.242
	c-2.243,3.476-8.518,12.99,1.596,16.997C146.294,223.975,149.701,215.214,147.815,206.047"/>
<path fill-rule="evenodd" fill="#FF00A4" d="M274.892,178.652c2.474,2.296,6.83,5.792,11.051,1.91
	c3.91-3.596,0.758-8.366,0.337-11.326l-9.238-0.568C274.785,172.582,274.242,172.592,274.892,178.652"/>
<path fill-rule="evenodd" fill="#FF00A4" d="M179.169,174.82c7.636,4.662,12.887,3.339,12.882-7.445
	C183.808,160.61,177.127,162.29,179.169,174.82"/>
<path fill-rule="evenodd" fill="#FF00A4" d="M194.468,231.762c-2.118,5.664-2.233,7.089,0.858,12.062
	c11.829,1.817,14.253-4.231,7.509-12.918L194.468,231.762z"/>
</svg>
