<?xml version="1.0" encoding="utf-8"?>
<!-- Generator: Adobe Illustrator 16.0.0, SVG Export Plug-In . SVG Version: 6.00 Build 0)  -->
<svg version="1.2" baseProfile="tiny" id="Layer_1" xmlns="http://www.w3.org/2000/svg" xmlns:xlink="http://www.w3.org/1999/xlink"
	 x="0px" y="0px" width="252.666px" height="294.008px" viewBox="0 0 252.666 294.008" xml:space="preserve">
<path fill-rule="evenodd" fill="#FDBABA" d="M49.797,60.269c0,16.594,0.045,8.16,2.939,20.582c-18.991,0-26.848,3.771-37.132,12.848
	c-30.029,26.5-16.22,87.116,37.132,87.116h145.537c31.241,0,54.393-22.774,54.393-52.923c0-28.079-24.74-51.451-52.923-51.451
	c-12.748,0-4.945,9.417-9.911-12.139c-3.969-17.226-22.989-33.021-41.539-33.434c-6.456,27.706-37.708,29.036-51.072,14.319
	c-5.181-5.707-7.731-11.289-7.731-21.669c-12.299,0.273-20.839,5.204-27.812,11.88C55.426,41.382,49.797,51.312,49.797,60.269"/>
<path fill-rule="evenodd" fill="#6B4646" d="M17.789,191.438l20.841,87.274c2.785,11.173,1.882,14.463,5.615,15.295h16.408
	c46.798-0.148,93.622-0.009,140.424,0h4.548c0.887-10.671,23.519-91.451,23.519-101.434c0-4.152-3.373-5.671-5.879-7.35
	c-5.554,1.482-4.275,2.837-8.819,5.879l-7.095-6.152c-5.812,1.756-4.531,3.11-9.077,6.152l-7.017-7.684l-6.487,7.429
	c-4.271-2.787-2.992-4.142-8.547-5.624l-7.095,6.151l-7.35-6.425c-5.087,1.563-5.097,2.405-7.606,6.152
	c-4.544-3.042-3.267-4.396-8.821-5.879l-7.094,6.151l-7.271-7.956l-6.487,7.429c-4.273-2.787-2.993-4.142-8.548-5.624l-7.094,6.151
	l-7.352-6.425c-5.085,1.563-5.095,2.405-7.604,6.152c-4.546-3.042-3.267-4.396-8.821-5.879l-7.094,6.151l-7.272-7.956l-6.487,7.429
	c-4.273-2.787-2.993-4.142-8.549-5.624l-7.095,6.151l-7.35-6.425c-5.809,1.756-4.531,3.11-9.075,6.152l-7.017-7.684L17.789,191.438z
	"/>
<path fill-rule="evenodd" fill="#FD0000" d="M93.899,23.518c0,35.372,49.982,32.177,49.982,4.41v-7.351
	C143.881-6.179,93.899-8.517,93.899,23.518"/>
<path fill-rule="evenodd" fill="#FFFFFF" d="M31.604,147.506c4.264,3.057,7.068,6.445,6.264,7.568
	c-0.805,1.122-4.914-0.447-9.177-3.505c-4.264-3.058-7.069-6.445-6.264-7.568C23.232,142.88,27.34,144.449,31.604,147.506"/>
<ellipse transform="matrix(0.5826 -0.8127 0.8127 0.5826 -108.9511 86.9129)" fill="none" stroke="#FFFFFF" stroke-width="0.5" stroke-miterlimit="2.613" cx="30.148" cy="149.538" rx="2.5" ry="9.5"/>
<path fill-rule="evenodd" fill="#FFFFFF" d="M53.047,111.006c2.172,0,3.942-1.853,3.942-4.125s-1.77-4.125-3.942-4.125
	c-2.172,0-3.943,1.853-3.943,4.125S50.875,111.006,53.047,111.006"/>
<path fill-rule="evenodd" fill="#FFFFFF" d="M91.01,112.278c5.018-1.532,9.413-1.704,9.816-0.384
	c0.403,1.32-3.338,3.633-8.356,5.165c-5.017,1.533-9.412,1.705-9.816,0.384C82.25,116.123,85.992,113.81,91.01,112.278"/>
<ellipse transform="matrix(-0.2921 -0.9564 0.9564 -0.2921 8.865 235.8994)" fill="none" stroke="#FFFFFF" stroke-width="0.5" stroke-miterlimit="2.613" cx="91.74" cy="114.669" rx="2.499" ry="9.5"/>
<path fill-rule="evenodd" fill="#FFFFFF" d="M73.24,159.562c2.172,0,3.942-1.854,3.942-4.125c0-2.272-1.77-4.125-3.942-4.125
	s-3.943,1.853-3.943,4.125C69.297,157.708,71.068,159.562,73.24,159.562"/>
<path fill-rule="evenodd" fill="#FFFFFF" d="M161.046,82.603c2.172,0,3.943-1.853,3.943-4.125s-1.771-4.125-3.943-4.125
	s-3.941,1.853-3.941,4.125S158.875,82.603,161.046,82.603"/>
<path fill-rule="evenodd" fill="#FFFFFF" d="M126.333,143.639c2.172,0,3.943-1.853,3.943-4.125s-1.771-4.125-3.943-4.125
	c-2.171,0-3.942,1.853-3.942,4.125S124.162,143.639,126.333,143.639"/>
<path fill-rule="evenodd" fill="#FFFFFF" d="M182.611,144.613c5.018-1.533,9.413-1.704,9.815-0.384
	c0.403,1.319-3.338,3.633-8.355,5.165c-5.018,1.533-9.412,1.705-9.816,0.384C173.852,148.458,177.592,146.146,182.611,144.613"/>
<ellipse transform="matrix(-0.292 -0.9564 0.9564 -0.292 96.2882 365.2832)" fill="none" stroke="#FFFFFF" stroke-width="0.5" stroke-miterlimit="2.613" cx="183.341" cy="147.004" rx="2.5" ry="9.5"/>
<path fill-rule="evenodd" fill="#FFFFFF" d="M96.914,78.478c2.172,0,3.942-1.853,3.942-4.125s-1.77-4.125-3.942-4.125
	c-2.172,0-3.943,1.853-3.943,4.125S94.741,78.478,96.914,78.478"/>
<path fill-rule="evenodd" fill="#FFFFFF" d="M213.49,112.476c-3.085-4.243-4.683-8.342-3.565-9.154s4.523,1.97,7.609,6.213
	c3.086,4.244,4.682,8.342,3.564,9.154C219.983,119.501,216.576,116.719,213.49,112.476"/>
<ellipse transform="matrix(-0.8087 0.5882 -0.5882 -0.8087 455.095 74.0271)" fill="none" stroke="#FFFFFF" stroke-width="0.5" stroke-miterlimit="2.613" cx="215.512" cy="111.006" rx="2.5" ry="9.5"/>
<path fill-rule="evenodd" fill="#FFFFFF" d="M168.931,118.794c2.173,0,3.943-1.853,3.943-4.125s-1.771-4.125-3.943-4.125
	c-2.172,0-3.942,1.853-3.942,4.125S166.759,118.794,168.931,118.794"/>
</svg>
