<?xml version="1.0" encoding="utf-8"?>
<!-- Generator: Adobe Illustrator 16.0.0, SVG Export Plug-In . SVG Version: 6.00 Build 0)  -->
<svg version="1.2" baseProfile="tiny" id="Layer_1" xmlns="http://www.w3.org/2000/svg" xmlns:xlink="http://www.w3.org/1999/xlink"
	 x="0px" y="0px" width="294.467px" height="337.59px" viewBox="0 0 294.467 337.59" xml:space="preserve">
<path fill-rule="evenodd" fill="#FED800" d="M179.067,277.9v3.979c-20.88,4.423-71.627-33.916-71.627-99.48
	c-25.459,0-34.64-2.122-57.738,9.909C20.069,207.744,2.317,237.143,0,266.82v13.164c0.997,12.566,4.893,24.814,11.978,35.68
	c4.608,7.066,18.638,21.926,29.805,21.926h0.209c4.279-0.021,2.195-0.696,7.75-1.991c5.045-21.661-9.95-9.568-9.95-41.782
	c0-13.794,13.823-53.092,54.018-20.19c8.512,6.968,14.209,12.066,23.552,18.23c32.986,21.759,111.4,49.065,143.942,32.467
	c8.648-4.41,4.336-6.638,13.558-8.328c9.143-1.676,11.766,1.229,16.059-5.827c1.107-1.819,2.922-7.549,3.547-14.022v-8.521
	c-0.712-6.271-3.267-11.976-9.334-14.316c-12.056-4.648-5.731,2.498-16.086-7.792c-20.271-20.151-89.979-25.053-89.979-61.233
	c0-27.093,33.857-50.755,62.185-22.391c9.461,9.475,5.917,19.115,21.38,20.403c15.89-30.03-3.466-87.543-69.637-87.543
	c-24.075,0-40.995,7.771-53.282,20.332c-30.397,31.073-26.127,80.38-3.638,110.203C142.488,253.789,168.662,275.122,179.067,277.9"
	/>
<path fill-rule="evenodd" fill="#FCF494" d="M29.845,110.771c0,32.225,3.833,47.363,9.947,73.618
	c10.14-0.844,17.454-8.087,30.959-10.824c26.136-5.299,25.8-1.113,38.68-1.113c1.173-14.11,8.638-24.983,15.284-34.597
	c7.151-10.342,1.911-11.397-2.498-37.878c-5.673-34.066-2.456-71.113-14.372-87.1C93.186-6.79,62.896-4.887,45.785,25.24
	C36.107,42.272,29.845,83.234,29.845,110.771"/>
</svg>
