<?xml version="1.0" encoding="utf-8"?>
<!-- Generator: Adobe Illustrator 16.0.0, SVG Export Plug-In . SVG Version: 6.00 Build 0)  -->
<svg version="1.2" baseProfile="tiny" id="Layer_1" xmlns="http://www.w3.org/2000/svg" xmlns:xlink="http://www.w3.org/1999/xlink"
	 x="0px" y="0px" width="322.911px" height="366.774px" viewBox="0 0 322.911 366.774" xml:space="preserve">
<path fill-rule="evenodd" fill="#D45C78" d="M200.149,350.224c-0.764-23.062-3.708-12.297-19.385-43.187l-7.593-11.49
	c-0.178-0.715-0.747-0.733-1.163-1.051c-4.727,12.385-10.97,31.532-5.914,48.426c5.983,3.763,8.36,3.299,16.599,4.501
	C188.529,348.274,194.12,349.101,200.149,350.224 M191.23,366.774c-10.738-1.292-24.787-4.824-42.716-7.24
	c-15-2.022-43.294-5.116-53.126-11.091c-20.437-12.416-11.142-51.901-2.344-72.097c11.836-27.163,7.84-25.628,5.632-65.497
	c-21.336-12.164-41.514-26.888-52.205-50.167C27.51,119.404,0,127.719,0,100.74c0-14.315,10.765-22.548,25.241-35.305
	c4.499-3.965,6.483-4.646,11.03-9.151l21.087-19.277c28.966-29.378,31.479-20.628,53.823-5.249l20.918,15.774
	c0-45.981,1.885-53.288,56.883-44.04l63.003,10.386c10.33,3.802,12.378,12.597,12.277,26.251c-0.175,23.889,4.012,38.28-7.99,63.69
	c-18.654,39.485-1.938,36.325-6.751,64.806l-2.147,14.625c28.01,7.424,36.767,53.27,55.657,65.8
	c13.205,8.762,19.5,15.236,19.88,21.977v1.314c-0.609,10.705-15.809,22.477-41.754,45.341
	c-25.865,22.792-41.459,43.885-62.825,32.579c-2.44,10.472-7.012,15.101-14.159,16.514H191.23z M161.455,282.424
	c10.068,5.646,2.174,5.553-2.834,24.697c-2.915,11.146-4.263,24.897-1.16,35.477c-8.325,0.192-8.535-0.506-9.32-10.52
	C146.978,317.223,151.188,291.872,161.455,282.424 M135.673,263.337c-2.445-2.325-6.107-5.344-8.881-8.583
	c-3.372-3.938-3.454-5.597-7.649-8.848c-0.832,9.797-2.646,19.219-5.413,27.276c-2.813,8.187-7.409,14.727-9.934,23.16
	c-2.563,8.564-3.929,20.315-2.492,29.83c1.617,10.712,8.96,10.861,19.871,11.177C117.314,278.93,133.1,292.189,135.673,263.337
	 M33.191,120.754c-4.63-1.14-6.041-2.442-9.586-5.094c-0.698-0.523-3.608-2.681-4.12-3.197c-2.825-2.849-1.439-0.541-3.28-4.795
	l-0.716-15.13c6.512-4.26,8.482-9.585,18.086-3.545c4.8,3.018,10.384,7.862,14.985,11.58c7.159,1.97,6.583,2.41,10.362,8.144
	c3.14,2.16,2.468,1.332,4.473,4.689c6.505,4.005,8.167,5.266,9.886,13.589c3.049,3.649,3.979,6.926,5.963,11.513
	c1.946,4.501,4.089,7.595,6.577,11.461l17.156,17.527c3.088,1.512,4.743,2.806,8.189,4.575c8.516,2.312,9.485,3.48,13.806,10.033
	c5.027,3.123,12.649,13.361,16.35,19.746c2.858,4.93,3.187,7.406,5.751,12.729c2.375,4.938,4.204,6.529,6.564,10.633
	c6.304,4.515,11.448,9.256,15.305,16.018c6.399,2.272,16.581,10.11,23.64,15.084c5.064,0.555,4.423,1.811,5.937,5.986
	c4.742,5.765,8.723,11.215,12.153,18.196c4.082,8.31,6.99,13.265,10.804,19.95l15.499,15.296c1.503,0.956,3.837,2.12,5.19,2.989
	c0.173,0.109,3.168,2.225,3.373,2.409c5.898,5.294,1.673,9.639-4.294,13.719c-5.427,3.71-4.525,3.463-12.69,4.11
	c-10.22-1.522-25.812-14.46-28.793-24.317c-5.465-9.116-8.528-17.619-14.113-26.445c-5.851-4.447-9.235-8.627-14.421-13.763
	c-5.736-5.683-10.804-6.91-15.637-12.433c-4.936-3.213-10.312-5.669-13.338-10.656c-7.044-4.132-9.859-6.815-12.191-15.665
	c-4.687-8.146-7.16-14.547-12.159-22.743l-19.15-18.976c-13.121-8.33-19.498-10.293-29.631-23.007
	c-4.329-5.437-6.343-9.604-9.535-16.3c-3.14-6.592-6.245-10.77-9.342-16.996L33.191,120.754z M65.595,86.906
	c-4.575-2.767-8.974-6.23-13.059-9.208c-6.301-4.592-8.139-4.986-5.368-14.224c11.171-5.175,19.198,2.562,25.2,8.876
	c10.4,6.33,15.67,10.649,22.97,21.061c7.379,10.521,9.648,19.722,16.327,29.012c4.841,3.458,7.837,5.242,9.415,11.359
	c6.022,1.643,7.686,4.585,11.383,9.257c9.76,6.109,17.746,9.347,24.857,17.984c5.444,3.658,6.06,3.242,8.021,10.07
	c5.441,9.29,8.268,18.114,14.309,26.539l20.694,20.617c7.086,4.717,12.172,6.663,18.69,11.937c4.033,3.259,5.045,4.276,8.483,8.324
	c4.57,5.382,5.365,4.511,5.02,10.004c0.441,0.322,1.072,0.289,1.267,1.037c0.193,0.732,0.956,0.778,1.207,1.059
	c4.607,5.124,3.108,4.407,6.129,11.101c2.463,5.463,5.291,8.583,7.573,13.142c7.104,3.928,13.626,10.418,17.496,17.559l1.515,0.622
	c7.168,2.654,6.058,0.322,7.545,6.177c-1.085,5.85-0.612,3.812-2.559,7.962c-9.11,1.635-8.21,0.878-15.39-2.511
	c-6.795-2.133-4.389-0.878-8.057-6.118l-1.602-1.101c-4.995-0.505-4.373-1.779-5.866-5.866c-6.341-7.03-18.189-27.356-20.634-37.192
	c-2.722-0.721-1.983,0.966-3.946-2.973c-5.615-3.237-8.713-6.336-11.951-11.951c-3.527-1.978-3.038-2.331-6.579-4.567
	c-7.595-2.092-11.396-4.08-15.42-9.864l-1.63-0.992c-6.114-2.209-7.465-3.589-9.5-9.791c-2.93-3.902-2.333-3.393-4.152-7.664
	c-1.371-0.906-0.164,0.695-2.442-2.176l-6.624-13.375c-3.192-6.527-6.482-9.526-9.609-14.867c-5.534-3.37-6.821-4.603-10.022-10.239
	c-5.209-2.72-18.495-11.377-23.7-15.273c-6.207-2.245-9.195-5.24-11.373-11.522c-5.727-8.293-7.068-10.716-11.201-19.843
	c-3.541-7.816-8.973-13.169-11.268-18.459l-8.406-8.602C68.94,90.521,69.098,89.604,65.595,86.906 M152.508,14.156
	c-4.209,1.625-5.413,0.988-6.083,6.083c-1.857,16.737,1.645,24.383-1.504,42.756c-1.707,9.971-0.583,9.728,3.337,17.657
	c4.56,9.227,10.029,18.328,16.632,2.967c9.032-21.009,6.397-39.032,4.804-60.163C169.363,19.051,174.171,11.692,152.508,14.156
	 M189.786,107.009c0.679-2.113,0.893-3.625,1.564-5.766c5.359-17.113,16.278-22.266,13.567-59.291
	c-1.659-22.665,0.334-17.971-9.22-19.813c-1.054,19.169,3.341,34.876-2.026,53.895c-7.515,26.626-18.525,26.03-6.646,37.281
	L189.786,107.009z M304.261,271.368c-5.805-5.372-11.028-6.984-16.759-12.265c-19.912-18.349-17.171-32.828-34.251-50.163
	c-10.874-11.033-22.058-14.561-32.748-24.098c-13.045-11.643-13.869-19.698-22.341-34.606
	c-16.372-28.812-43.817-30.568-57.878-55.878c-19.23-34.613-15.908-32.99-54.051-59.191c-4.781,2.791-20.093,16.612-23.796,21.54
	c5.47,7.907,22.398,16.785,30.862,25.971c11.784,12.792,12.762,22.582,21.358,35.549c17.108,25.807,41.946,25.337,58.205,55.525
	c29.401,54.597,27.862,30.048,55.352,58.37c16.943,17.455,24.261,54.66,52.499,61.568
	C287.439,288.377,300.554,277.77,304.261,271.368 M212.919,25.318c-0.154,17.243,2.312,30.206-0.975,46.998
	c-3.034,15.493-9.823,21.843-13.684,36.03c-4.633,17.041,6.458,18.946,14.186,33.215c3.813,7.041,9.934,27.729,19.466,27.749
	c4.571-30.804-10.062-33.979,6.246-69.084c10.21-21.975,12.7-41.71,7.099-70.47L212.919,25.318z"/>
<path fill-rule="evenodd" fill="#F7D8E2" d="M304.262,271.368c-3.708,6.401-16.822,17.009-23.549,22.322
	c-28.237-6.908-35.556-44.113-52.499-61.568c-27.488-28.32-25.95-3.772-55.352-58.37c-16.259-30.188-41.097-29.718-58.205-55.525
	c-8.597-12.967-9.574-22.757-21.358-35.549c-8.465-9.186-25.393-18.064-30.862-25.971c3.703-4.928,19.015-18.749,23.795-21.54
	c38.144,26.201,34.822,24.578,54.051,59.191c14.062,25.31,41.507,27.066,57.878,55.878c8.474,14.909,9.297,22.963,22.342,34.607
	c10.69,9.536,21.873,13.063,32.748,24.096c17.08,17.336,14.339,31.815,34.251,50.164
	C293.231,264.385,298.456,265.996,304.262,271.368"/>
<path fill-rule="evenodd" fill="#D73839" d="M48.56,100.573c1.22,1.45,0.839,1.452,3.01,3.476c0.418,0.39,1.738,1.476,2.187,1.809
	c1.2,0.891,3.56,2.035,5.166,2.859c3.14,2.16,2.468,1.332,4.472,4.689c2.64,5.268,6.343,9.762,9.886,13.589
	c3.049,3.649,3.981,6.926,5.964,11.513c1.945,4.501,4.089,7.595,6.576,11.461c2.774,7.197,10.114,14.719,17.156,17.527
	c3.088,1.512,4.744,2.806,8.189,4.574c2.705,2.921-1.215-0.578,3.238,3.138c0.21,0.176,3.006,2.2,3.276,2.395
	c3.062,2.215,3.054,2.397,7.292,4.501c5.028,3.122,12.649,13.36,16.35,19.745c2.858,4.93,3.188,7.406,5.751,12.729
	c2.375,4.937,4.204,6.529,6.564,10.633c2.848,7.047,8.488,12.833,15.306,16.017c6.399,2.273,16.579,10.111,23.639,15.085
	l5.938,5.986c4.741,5.765,8.723,11.215,12.152,18.196c4.083,8.31,6.991,13.265,10.805,19.95c2.976,7.378,8.069,12.146,15.498,15.296
	c1.504,0.956,3.838,2.12,5.19,2.989c0.173,0.109,3.168,2.225,3.374,2.409c5.897,5.294,1.673,9.639-4.295,13.719
	c-5.427,3.71-4.525,3.463-12.69,4.111c-10.967-8.643-11.533-4.854-21.661-17.481l-7.132-6.837
	c-5.465-9.116-8.529-17.619-14.113-26.445c-3.232-9.608-19.035-23.512-30.059-26.194c-4.936-3.214-10.312-5.669-13.337-10.657
	c-2.739-4.421-3.274-4.826-5.914-8.044c-1.467-1.788-1.801-2.377-3.259-4.193c-2.705-3.368-1.112-1.42-3.019-3.428
	c-4.687-8.146-7.159-14.547-12.159-22.743c-2.691-7.24-11.846-16.382-19.149-18.976c-13.121-8.33-19.499-10.293-29.631-23.007
	c-4.33-5.437-6.343-9.604-9.535-16.3c-3.14-6.592-6.246-10.77-9.342-16.996c-2.77-6.743-10.436-14.629-17.052-16.913
	c-3.94-5.209-11.011-9.184-16.987-13.086l-0.715-15.13c6.512-4.261,8.481-9.585,18.086-3.545
	C38.375,92.011,43.96,96.854,48.56,100.573"/>
<path fill-rule="evenodd" fill="#F7D8E2" d="M245.257,29.756c5.603,28.76,3.112,48.495-7.099,70.47
	c-16.308,35.106-1.676,38.28-6.245,69.084c-9.533-0.02-15.652-20.708-19.466-27.748c-7.729-14.27-18.819-16.175-14.187-33.216
	c3.86-14.187,10.649-20.537,13.684-36.03c3.286-16.792,0.82-29.755,0.975-46.998L245.257,29.756z"/>
<path fill-rule="evenodd" fill="#ED93B4" d="M111.665,122.423c2.592,6.492,4.676,8.011,9.415,11.359
	c3.537,5.099,4.499,6.172,11.384,9.258c9.76,6.108,17.745,9.346,24.857,17.983c3.593,6.263,3.452,6.215,8.02,10.07
	c5.441,9.29,8.267,18.114,14.309,26.539l-0.318,3.273c-1.019,12.47-2.321-5.609-0.389,4.338c0.06,0.295,0.473,1.445,0.869,1.911
	c-6.993,0.05-0.396-2.279-11.827-0.574c-1.372-0.906-0.165,0.696-2.442-2.176l-6.625-13.374c-3.192-6.527-6.482-9.526-9.608-14.868
	c-3.101-5.743-4.323-7.051-10.023-10.239c-5.209-2.72-18.495-11.377-23.7-15.273l-11.372-11.522
	c-5.728-8.293-7.069-10.715-11.201-19.843c-3.541-7.816-8.974-13.169-11.269-18.458l-8.405-8.603
	c-4.399-1.703-4.241-2.62-7.745-5.318c5.664-5.151,7.742,1.205,7.862-5.185c0.147-7.83-0.624,2.138-1.992-4.521l0.366-3.53
	c0.02-0.663,0.176-1.012,0.538-1.32c10.399,6.33,15.669,10.649,22.97,21.061C102.717,103.932,104.985,113.133,111.665,122.423"/>
<path fill-rule="evenodd" fill="#D73839" d="M146.425,20.239c1.955-1.667,0.856-0.442,3.279-2.804
	c3.56-3.469,0.277-0.312,2.804-3.278c21.663-2.464,16.855,4.895,17.186,9.3c1.593,21.13,4.228,39.153-4.804,60.162
	c-6.603,15.362-12.072,6.261-16.632-2.967c-3.92-7.929-5.044-7.686-3.337-17.656C148.07,44.622,144.568,36.977,146.425,20.239"/>
<path fill-rule="evenodd" fill="#F7D8E2" d="M135.673,263.338c-2.572,28.851-18.359,15.591-14.497,74.011
	c-10.911-0.314-18.255-0.464-19.871-11.175c-1.437-9.516-0.072-21.268,2.492-29.831c2.524-8.435,7.12-14.975,9.933-23.16
	c2.767-8.057,4.581-17.479,5.413-27.276c4.195,3.25,4.278,4.91,7.65,8.849C129.565,257.993,133.228,261.013,135.673,263.338"/>
<path fill-rule="evenodd" fill="#F7D8E2" d="M200.148,350.223c-6.028-1.123-11.619-1.948-17.454-2.8
	c-8.239-1.203-10.616-0.739-16.6-4.501c-5.056-16.895,1.187-36.041,5.914-48.425c0.416,0.315,0.986,0.336,1.163,1.051l7.593,11.489
	C196.441,337.927,199.386,327.162,200.148,350.223"/>
<path fill-rule="evenodd" fill="#ED95B6" d="M248.713,274.851c3.052,6.471,11.032,14.421,17.496,17.56l1.516,0.621
	c1.453,1.707,0.93,1.452,2.994,3.114c0.766,0.618,3.688,2.432,4.551,3.064c-1.085,5.849-0.613,3.812-2.56,7.962
	c-9.109,1.633-8.211,0.877-15.39-2.512c-3.788-4.671-1.58-2.96-8.057-6.117l-1.602-1.102l-5.866-5.865
	c-6.341-7.03-18.189-27.356-20.634-37.192c2.434-2.668,0.6-1.104,3.196-3.001c0.434-0.319,3.032-1.786,3.474-1.975
	c9.196-3.904-2.28,1.127,4.705-0.896c0.441,0.323,1.072,0.291,1.268,1.039c0.192,0.732,0.955,0.777,1.206,1.057
	c4.607,5.125,3.108,4.408,6.129,11.102C243.604,267.173,246.432,270.294,248.713,274.851"/>
<path fill-rule="evenodd" fill="#ED94B5" d="M200.344,218.249c7.086,4.718,12.172,6.663,18.69,11.936
	c4.032,3.26,5.045,4.277,8.483,8.326c4.57,5.38,5.365,4.509,5.02,10.002c-6.985,2.022,4.492-3.01-4.705,0.896
	c-0.442,0.188-3.04,1.656-3.475,1.974c-2.595,1.898-0.762,0.334-3.195,3.001c-2.723-0.721-1.983,0.965-3.946-2.973
	c-3.298-6.438-5.489-8.688-11.951-11.95c-3.527-1.979-3.038-2.332-6.579-4.568c-1.289-1.229-1.328-1.523-3.401-2.903
	c-1.48-0.984-2.084-1.129-3.555-2.01c-3.915-2.338-4.011-2.802-8.464-4.95l-1.629-0.993l-9.501-9.79
	c-2.93-3.903-2.333-3.395-4.151-7.665c11.43-1.705,4.834,0.624,11.827,0.574c-0.396-0.466-0.811-1.616-0.868-1.911
	c-1.934-9.947-0.632,8.132,0.388-4.338C189.574,208.662,189.702,213.683,200.344,218.249"/>
<path fill-rule="evenodd" fill="#F5D7E1" d="M187.025,113.315c-11.879-11.251-0.869-10.655,6.646-37.281
	c5.368-19.019,0.973-34.726,2.025-53.895c9.556,1.842,7.562-2.851,9.222,19.813c2.711,37.025-8.209,42.178-13.568,59.291
	c-0.671,2.141-0.886,3.653-1.564,5.766L187.025,113.315z"/>
<path fill-rule="evenodd" fill="#F7D8E2" d="M157.461,342.597c-8.325,0.193-8.536-0.505-9.32-10.518
	c-1.164-14.857,3.047-40.207,13.314-49.655c10.067,5.646,2.173,5.552-2.835,24.697C155.707,318.266,154.358,332.018,157.461,342.597
	"/>
<path fill-rule="evenodd" fill="#ED93B0" d="M72.368,72.351c-0.362,0.308-0.518,0.657-0.537,1.32l-0.367,3.53
	c1.368,6.659,2.139-3.309,1.992,4.52c-0.119,6.391-2.197,0.035-7.862,5.186c-4.575-2.768-8.974-6.23-13.058-9.208
	c-6.302-4.592-8.139-4.986-5.368-14.224C58.339,58.299,66.365,66.036,72.368,72.351"/>
<path fill-rule="evenodd" fill="#D64A58" d="M185.647,288.206c-5.851-4.447-9.236-8.627-14.421-13.764
	c-5.736-5.681-10.805-6.909-15.637-12.431C166.612,264.693,182.414,278.598,185.647,288.206"/>
<path fill-rule="evenodd" fill="#D64A58" d="M228.554,338.97c-10.219-1.523-25.813-14.46-28.793-24.318l7.132,6.837
	C217.021,334.115,217.587,330.327,228.554,338.97"/>
<path fill-rule="evenodd" fill="#E07493" d="M266.209,292.41c-6.464-3.139-14.444-11.089-17.495-17.56
	C255.816,278.78,262.34,285.27,266.209,292.41"/>
<path fill-rule="evenodd" fill="#E07493" d="M200.344,218.249c-10.642-4.566-10.77-9.587-21.013-17.344l0.317-3.273L200.344,218.249
	z"/>
<path fill-rule="evenodd" fill="#D64A58" d="M168.942,241.228c-6.817-3.183-12.458-8.969-15.305-16.016
	C159.94,229.726,165.085,234.467,168.942,241.228"/>
<path fill-rule="evenodd" fill="#D64A58" d="M117.901,212.946l-19.15-18.976C106.054,196.563,115.21,205.707,117.901,212.946"/>
<path fill-rule="evenodd" fill="#D64A58" d="M33.191,120.754c-4.631-1.14-6.042-2.442-9.587-5.094
	c-0.697-0.523-3.608-2.681-4.119-3.197c-2.826-2.849-1.439-0.541-3.281-4.795C22.182,111.57,29.252,115.545,33.191,120.754"/>
<path fill-rule="evenodd" fill="#D64A58" d="M102.977,167.496c-7.043-2.808-14.382-10.33-17.156-17.527L102.977,167.496z"/>
<path fill-rule="evenodd" fill="#D64A58" d="M142.251,251.354c-7.045-4.132-9.86-6.814-12.191-15.664
	c1.906,2.009,0.314,0.061,3.018,3.428c1.459,1.815,1.792,2.406,3.259,4.192C138.978,246.528,139.513,246.933,142.251,251.354"/>
<path fill-rule="evenodd" fill="#D64A58" d="M50.244,137.667l-17.052-16.913C39.808,123.039,47.474,130.924,50.244,137.667"/>
<path fill-rule="evenodd" fill="#D64A58" d="M236.975,315.741c-7.428-3.15-12.523-7.918-15.498-15.297L236.975,315.741z"/>
<path fill-rule="evenodd" fill="#E07493" d="M217.216,251.41c-5.615-3.236-8.713-6.336-11.951-11.951
	C211.727,242.724,213.918,244.973,217.216,251.41"/>
<path fill-rule="evenodd" fill="#D64A58" d="M124.972,182.104c-4.239-2.104-4.23-2.286-7.292-4.501
	c-0.27-0.195-3.066-2.219-3.276-2.395c-4.453-3.716-0.533-0.216-3.238-3.137C119.683,174.383,120.651,175.551,124.972,182.104"/>
<path fill-rule="evenodd" fill="#D64A58" d="M73.281,126.995c-3.543-3.827-7.246-8.321-9.886-13.589
	C69.9,117.41,71.562,118.672,73.281,126.995"/>
<path fill-rule="evenodd" fill="#DF7595" d="M198.687,234.892c-7.596-2.091-11.396-4.08-15.42-9.864
	c4.452,2.149,4.548,2.613,8.464,4.952c1.469,0.879,2.074,1.025,3.554,2.008C197.358,233.368,197.397,233.662,198.687,234.892"/>
<path fill-rule="evenodd" fill="#DF7492" d="M121.08,133.782c-4.739-3.348-6.824-4.867-9.415-11.359
	C116.506,125.881,119.502,127.665,121.08,133.782"/>
<path fill-rule="evenodd" fill="#E07493" d="M132.463,143.04c-6.884-3.086-7.847-4.159-11.383-9.257
	C127.102,135.425,128.766,138.368,132.463,143.04"/>
<path fill-rule="evenodd" fill="#DF7595" d="M149.309,176.162c-5.534-3.37-6.822-4.603-10.022-10.239
	C144.986,169.111,146.208,170.42,149.309,176.162"/>
<path fill-rule="evenodd" fill="#D64A58" d="M58.922,108.717c-1.606-0.823-3.966-1.968-5.166-2.858
	c-0.449-0.334-1.768-1.42-2.187-1.81c-2.171-2.024-1.79-2.026-3.01-3.476C55.719,102.543,55.143,102.983,58.922,108.717"/>
<path fill-rule="evenodd" fill="#DF7492" d="M115.586,150.65c-6.206-2.245-9.195-5.24-11.372-11.522L115.586,150.65z"/>
<path fill-rule="evenodd" fill="#DF7595" d="M165.341,171.093c-4.568-3.855-4.427-3.807-8.02-10.07
	C162.765,164.681,163.379,164.265,165.341,171.093"/>
<path fill-rule="evenodd" fill="#DF7492" d="M181.637,224.035c-6.115-2.208-7.465-3.588-9.5-9.79L181.637,224.035z"/>
<path fill-rule="evenodd" fill="#DF7595" d="M275.27,299.21c-0.862-0.634-3.786-2.446-4.551-3.064
	c-2.065-1.662-1.54-1.407-2.995-3.114C274.893,295.687,273.78,293.354,275.27,299.21"/>
<path fill-rule="evenodd" fill="#E17897" d="M257.32,304.66c-6.796-2.134-4.388-0.878-8.057-6.117
	C255.74,301.7,253.532,299.99,257.32,304.66"/>
<path fill-rule="evenodd" fill="#D64A58" d="M146.425,20.239c0.669-5.094,1.874-4.457,6.083-6.082
	c-2.527,2.966,0.756-0.191-2.804,3.278C147.281,19.797,148.38,18.572,146.425,20.239"/>
<path fill-rule="evenodd" fill="#D54B5A" d="M198.52,262.3l-5.938-5.987C197.646,256.866,197.005,258.123,198.52,262.3"/>
<path fill-rule="evenodd" fill="#E07493" d="M247.662,297.441c-4.995-0.505-4.373-1.779-5.866-5.866L247.662,297.441z"/>
<path fill-rule="evenodd" fill="#E17897" d="M81.745,100.827l-8.406-8.603L81.745,100.827z"/>
</svg>
