<?xml version="1.0" encoding="utf-8"?>
<!-- Generator: Adobe Illustrator 16.0.0, SVG Export Plug-In . SVG Version: 6.00 Build 0)  -->
<svg version="1.2" baseProfile="tiny" id="Layer_1" xmlns="http://www.w3.org/2000/svg" xmlns:xlink="http://www.w3.org/1999/xlink"
	 x="0px" y="0px" width="312.848px" height="274.055px" viewBox="0 0 312.848 274.055" xml:space="preserve">
<path fill-rule="evenodd" fill="#EFB6EF" d="M79.509,35.526c0,21.15,9.938,15.609,0,30.451
	c-15.133-1.259-24.796-18.353-49.966-11.08C6.326,61.609,0,81.318,0,103.194c0,21.59,16.915,22.081,16.915,40.602
	c0,4.9-20.702,39.17,11.839,57.522c14.638,8.256,28.227,1.912,43.224,9.217c29.534,14.382,0.206,63.521,43.056,63.521
	c25.384,0,15.789-35.525,43.984-35.525c13.195,0,22.04,5.125,30.365,10.236c14.038,8.62,29.074,13.396,40.732-5.115
	c7.571-12.022-4.434-38.955,23.637-38.955c12.477,0,35.526,12.554,35.526-11.842c0-17.809-27.493-10.212-15.253-38.928
	c10.332-24.237,22.021-21.104,22.021-43.966c0-14.19-8.397-21.609-18.731-25.251c-7.911-2.79-23.911,0.351-34.018-11.657
	c-8.666-10.296-6.066-19.358-8.518-35.47c-2.019-13.263-12.384-22.356-28.394-22.356c-20.56,0-14.228,15.225-42.293,15.225
	C142.244,30.451,146.918,0,113.342,0C95.044,0,79.509,17.402,79.509,35.526"/>
<path fill-rule="evenodd" fill="#E77DE7" d="M258.828,253.754c22.388,0,26.874-30.45-1.691-30.45
	c-8.709,0-14.983,7.977-14.767,15.044C242.588,245.425,250.264,253.754,258.828,253.754"/>
<path fill-rule="evenodd" fill="#E77DE7" d="M311.306,216.099c5.043-6.915-3.353-15.158-9.786-6.337
	c-1.962,2.691-0.911,6.425,1.319,7.95C305.074,219.24,309.376,218.745,311.306,216.099"/>
<path fill-rule="evenodd" fill="#E77DE7" d="M53.801,32.954c8.056-7.773-0.903-20.286-11.18-10.369
	C39.487,25.608,40,30.656,42.53,33.124C45.066,35.595,50.72,35.927,53.801,32.954"/>
<path fill-rule="evenodd" fill="#FFFFFF" d="M104.863,15.487c4.689-3.241,13.258-0.544,11.013-3.793
	c-2.245-3.248-8.279-2.815-12.968,0.425c-4.689,3.241-7.596,9.271-5.351,12.519C99.802,27.887,100.174,18.728,104.863,15.487"/>
<path fill="none" stroke="#FFFFFF" stroke-width="0.5" stroke-miterlimit="2.613" d="M104.863,15.487
	c4.689-3.241,13.258-0.544,11.013-3.793c-2.245-3.248-8.279-2.815-12.968,0.425c-4.689,3.241-7.596,9.271-5.351,12.519
	C99.802,27.887,100.174,18.728,104.863,15.487z"/>
<path fill-rule="evenodd" fill="#FFFFFF" d="M28.736,183.5c-2.752-3.433-1.144-10.177-3.522-8.271
	c-2.378,1.906-1.715,6.527,1.037,9.959c2.751,3.433,7.552,5.34,9.929,3.436C38.558,186.717,31.487,186.931,28.736,183.5"/>
<path fill="none" stroke="#FFFFFF" stroke-width="0.5" stroke-miterlimit="2.613" d="M28.736,183.5
	c-2.752-3.433-1.144-10.177-3.522-8.271c-2.378,1.906-1.715,6.527,1.037,9.959c2.751,3.433,7.552,5.34,9.929,3.436
	C38.558,186.717,31.487,186.931,28.736,183.5z"/>
<path fill-rule="evenodd" fill="#FFFFFF" d="M110.244,263.573c-2.603-0.525-4.469-4.272-4.833-2.47
	c-0.364,1.805,1.732,3.688,4.335,4.214s5.566-0.448,5.93-2.252C116.041,261.262,112.847,264.098,110.244,263.573"/>
<path fill="none" stroke="#FFFFFF" stroke-width="0.5" stroke-miterlimit="2.613" d="M110.244,263.573
	c-2.603-0.525-4.469-4.272-4.833-2.47c-0.364,1.805,1.732,3.688,4.335,4.214s5.566-0.448,5.93-2.252
	C116.041,261.262,112.847,264.098,110.244,263.573z"/>
<path fill-rule="evenodd" fill="#FFFFFF" d="M288.227,104.197c0.681,2.567-1.854,5.898-0.076,5.427
	c1.778-0.472,2.541-3.185,1.861-5.752c-0.681-2.567-2.865-4.793-4.643-4.322C283.59,100.021,287.546,101.63,288.227,104.197"/>
<path fill="none" stroke="#FFFFFF" stroke-width="0.5" stroke-miterlimit="2.613" d="M288.227,104.197
	c0.681,2.567-1.854,5.898-0.076,5.427c1.778-0.472,2.541-3.185,1.861-5.752c-0.681-2.567-2.865-4.793-4.643-4.322
	C283.59,100.021,287.546,101.63,288.227,104.197z"/>
</svg>
