<?xml version="1.0" encoding="utf-8"?>
<!-- Generator: Adobe Illustrator 16.0.0, SVG Export Plug-In . SVG Version: 6.00 Build 0)  -->
<svg version="1.2" baseProfile="tiny" id="Layer_1" xmlns="http://www.w3.org/2000/svg" xmlns:xlink="http://www.w3.org/1999/xlink"
	 x="0px" y="0px" width="262.376px" height="223.338px" viewBox="0 0 262.376 223.338" xml:space="preserve">
<path fill-rule="evenodd" fill="#37972D" d="M233.679,13.172c3.095,6.448,1.004,17.942-1.336,23.26
	c-7.412,16.838-28.666,25.161-45.093,16.335c-3.591-1.928-5.038-4.214-9.599-5.432c0.271,12.192,0.532,25.464-15.896,34.669
	c-6.182,3.464-14.45,5.473-21.391,4.08c-8.835-1.773-12.289-5.269-18.744-8.685c0,30.77-21.292,42.666-40.665,37.998
	c-11.768-2.836-10.383-5.501-18.095-10.666c-3.575,0.954-9.939,4.992-13.666,6.832c-5.31,2.622-9.101,3.425-12.299,8.2
	c11.678,17.438,54.687,4.773,69.996,0.302c21.336-6.234,43.826-16.872,62.111-26.716c29.622-15.948,52.85-31.869,76.66-55.894
	c9.823-9.912,16.713-20.112,16.713-33.849c0-7.938-10.166-0.588-13.604,1.425C243.702,8.001,239.059,10.325,233.679,13.172"/>
<path fill-rule="evenodd" fill="#57DA49" d="M69.694,197.656c0,21.26,27.542,34.51,44.751,18.788
	c17.61-16.093,6.495-47.879-18.429-46.802C79.925,170.336,69.694,181.663,69.694,197.656"/>
<path fill-rule="evenodd" fill="#57DA49" d="M184.484,149.828c-7.747,1.571-9.707-1.35-18.854,8.477
	c-15.816,16.989-1.363,46.949,22.436,44.333c16.023-1.763,26.308-16.511,24.629-29.042
	C210.633,158.188,197.03,147.281,184.484,149.828"/>
<path fill-rule="evenodd" fill="#57DA49" d="M0,160.759c0,44.396,53.295,34.296,53.295,5.467c0-26.719-28.349-36.163-44.121-22.256
	C5.554,147.162,0,154.692,0,160.759"/>
<path fill-rule="evenodd" fill="#57DA49" d="M65.594,80.133v6.832c0,11.104,12.893,20.937,24.337,20.161
	c28.243-1.913,29.812-43.945,0.773-46.532C80.135,59.651,65.594,67.925,65.594,80.133"/>
<path fill-rule="evenodd" fill="#57DA49" d="M179.017,22.737c0,30.897,46.463,31.806,46.463,0
	C225.48-7.544,179.017-7.544,179.017,22.737"/>
<path fill-rule="evenodd" fill="#57DA49" d="M121.622,52.801c0,29.186,46.464,35.375,46.464-1.367
	c0-12.964-11.317-21.652-23.063-21.401c-6.11,0.131-12.26,2.888-16.151,6.784C125.928,39.765,121.622,47.728,121.622,52.801"/>
</svg>
