<?xml version="1.0" encoding="utf-8"?>
<!-- Generator: Adobe Illustrator 16.0.0, SVG Export Plug-In . SVG Version: 6.00 Build 0)  -->
<svg version="1.2" baseProfile="tiny" id="Layer_1" xmlns="http://www.w3.org/2000/svg" xmlns:xlink="http://www.w3.org/1999/xlink"
	 x="0px" y="0px" width="280.204px" height="244.028px" viewBox="0 0 280.204 244.028" xml:space="preserve">
<path fill-rule="evenodd" fill="#FD0000" d="M196.634,209.973c2.802,0,2.259-0.791,2.259,1.714c1.146,1.5,0.696,0.568-0.79,1.799
	l-2.889-1.799l-1.521-1.469L196.634,209.973z M270.113,244.028c3.806-0.087,6.75-0.655,8.468-1.847
	c7.968-9.953-15.598-24.038-23.139-29.03c-34.354-22.747-33.44-25.189-59.909-51.813c-9.54-9.598-20.592-17.553-29.335-27.998
	c-17.058-20.377-32.036-42.133-50.783-60.94c-9.136-9.164-21.608-19.328-35.332-20.266c-10.855-0.742-7.23,6.933-19.044,5.652
	c-10.402-1.129-13.567,2.045-22.052,6.896l-2.589,2.663l-1.186,1.747l-1.755,2.627c-1.926,8.655-1.329,15.318-2.693,24.121
	c-7.586,48.882,56.447,76.864,86.488,96.737c22.979,15.203,47.34,25.321,73.308,34.006c12.439,4.16,55.955,17.053,77.474,17.446
	H270.113z M193.693,210.218c-6.457-5.622-82.069-42.744-112.099-73.129c-16.1-16.292-19.955-28.795-34.069-24.388
	C43.142,137.572,169.727,207.653,193.693,210.218"/>
<path fill-rule="evenodd" fill="#2A6E23" d="M20.218,63.211c-4.117-5.874-3.122-1.642-2.547-9.529
	c0.634-0.337-4.747-3.901,5.495,0.702c-4.201-10.432-15.723-13.366-11.188-30.25c3.715-13.828,14.89-12.494,22.696-18.759
	C33.28,2.573,31.506,0.859,29.504,0h-7.333C13.386,2.892,3.711,14.379,1.188,22.131C-3.54,36.632,6.465,57.672,20.218,63.211"/>
<path fill-rule="evenodd" fill="#286E21" d="M20.218,63.211c2.313,4.285,8.468,8.51,13.237,8.508l1.756-2.627l1.186-1.747
	l2.589-2.663c-2.254-4.485-2.497-3.334-6.685-6.204c-0.285-0.194-4.204-3.122-4.266-3.157c-3.388-1.871-1.023-1.786-4.869-0.937
	c-10.242-4.603-4.861-1.039-5.495-0.702C17.096,61.569,16.101,57.337,20.218,63.211"/>
<path fill-rule="evenodd" fill="#E44444" d="M195.214,211.687l2.889,1.799l0.79-1.799c0-2.505,0.544-1.714-2.259-1.714
	L195.214,211.687z"/>
</svg>
