<?xml version="1.0" encoding="utf-8"?>
<!-- Generator: Adobe Illustrator 16.0.0, SVG Export Plug-In . SVG Version: 6.00 Build 0)  -->
<svg version="1.2" baseProfile="tiny" id="Layer_1" xmlns="http://www.w3.org/2000/svg" xmlns:xlink="http://www.w3.org/1999/xlink"
	 x="0px" y="0px" width="332.408px" height="331.587px" viewBox="0 0 332.408 331.587" xml:space="preserve">
<path fill-rule="evenodd" fill="#C85734" d="M250.619,58.355c25.636-7.093,30.212,15.795,18.512,23.212
	c-7.277,4.615-14.675,0.869-19.016,8.984c-2.906,5.433-2.026,15.906-4.538,21.997c-13.257,32.141-42.758,20.737-49.988,32.295
	c-3.234,5.169-1.764,13.866-4.749,21.629c-13.055,33.94-42.758,21.254-49.8,32.573c-2.799,4.501-2.443,15.052-4.881,21.541
	c-4.754,12.659-13.826,22.34-28.409,26.002c-8.935,2.245-16.837,0.259-21.306,6.652c-4.212,6.026-2.172,14.48-7.822,18.665
	c-13.482,9.988-26.189-4.558-19.544-23.937c11.489-33.509,41.832-21.883,49.623-32.789c3.983-5.575,2.577-14.399,4.982-21.453
	c11.454-33.61,41.409-22.866,49.573-32.771c4.281-5.197,2.866-14.173,5.009-21.527c9.383-32.197,41.888-24.157,49.412-32.852
	C224.042,99.222,217.293,67.575,250.619,58.355 M330.61,58.907c7.542-26.213-10.054-47.335-26.638-54.66
	c-11.334-5.006-22.289-5.634-34.459-1.634c-12.029,3.955-17.002,10.496-23.838,17.326L38.111,226.932
	c-10.468,10.466-32.028,27.324-36.579,45.789c-9.57,38.825,27.51,67.608,60.871,56.434c11.873-3.979,17.142-10.212,24.056-17.121
	L294.023,105.04C305.864,93.218,324.792,79.128,330.61,58.907"/>
<path fill-rule="evenodd" fill="#E6C37B" d="M212.83,28.036c5.542-11.512-16.737-20.742-27.425-22.775
	c-29.895-5.685-48.038,19.803-65.555,37.33c-18.263,18.273-95.675,93.753-104.277,104.406c-7.851,9.719-13.076,23.37-9.763,40.738
	c1.891,9.908,12.342,32.748,25.074,23.188c6.676-5.015,19.03-18.981,25.773-25.719C73.373,168.509,210.209,33.479,212.83,28.036"/>
<path fill-rule="evenodd" fill="#E6C37B" d="M325.936,164.752c5.27-20.764-9.797-59.162-26.552-41.11
	c-4.418,4.757-7.871,8.021-12.424,12.557L130.747,291.637c-10.435,10.41-21.124,17.54-0.3,28.785
	c12.69,6.854,27.558,8.889,42.263,2.821c17.74-7.317,108.855-104.408,132.316-127.816
	C315.452,185.023,321.413,182.572,325.936,164.752"/>
<path fill-rule="evenodd" fill="#FFEA00" d="M250.619,58.355c-33.325,9.22-26.576,40.867-32.94,48.222
	c-7.525,8.695-40.03,0.655-49.413,32.852c-2.144,7.354-0.729,16.33-5.009,21.527c-8.164,9.904-38.119-0.839-49.573,32.771
	c-2.405,7.053-0.999,15.878-4.982,21.453c-7.791,10.906-38.134-0.72-49.623,32.789c-6.645,19.378,6.061,33.925,19.544,23.937
	c5.649-4.186,3.609-12.639,7.822-18.665c4.469-6.394,12.371-4.407,21.306-6.652c14.583-3.662,23.655-13.343,28.409-26.003
	c2.438-6.488,2.082-17.04,4.881-21.54c7.042-11.319,36.745,1.367,49.8-32.573c2.985-7.763,1.515-16.46,4.749-21.629
	c7.23-11.558,36.731-0.154,49.988-32.295c2.512-6.091,1.632-16.564,4.538-21.997c4.341-8.115,11.738-4.369,19.016-8.984
	C280.83,74.15,276.254,51.262,250.619,58.355"/>
</svg>
