<?xml version="1.0" encoding="utf-8"?>
<!-- Generator: Adobe Illustrator 16.0.0, SVG Export Plug-In . SVG Version: 6.00 Build 0)  -->
<svg version="1.2" baseProfile="tiny" id="Layer_1" xmlns="http://www.w3.org/2000/svg" xmlns:xlink="http://www.w3.org/1999/xlink"
	 x="0px" y="0px" width="652.015px" height="219.523px" viewBox="67.399 29.59 652.015 219.523" xml:space="preserve">
<g>
	<path d="M85.499,160.923l6.16,4.369c3.621,1.787,5.767,0.579,8.727-0.787c4.796-2.214,9.064-5.403,13.706-8.063
		c8.813-5.049,28.655-13.859,40.065-13.854c8.793,0.004,23.468,0.972,30.734-1.894c4.508-1.777,2.503-2.358,8.492-2.353
		c8.986,0.009,24.476-0.693,32.184,0.435c14.938,2.186,25.854,11.468,31.705,22.17c1.807,3.306,1.524,4.791,2.272,8.594
		c3.832,19.482-2.73,39.648-12.525,55.693c-1.106,1.812-0.845,1.763-2.777,2.826c-2.376,1.305-4.697,2.625-6.998,3.895
		c-2.41,1.328-4.512,2.574-6.981,3.919c-1.055,0.575-2.328,1.313-3.395,1.894c-4.668,2.531-3.403,1.668-3.381,9.103l52.741-0.001
		c2.95-5.676,20.496-30.902,25.337-38.071c1.115-1.651,3.247-5.03,4.638-5.954c1.718-1.143,5.29-3.236,7.188-3.877l-2.156,12.171
		l7.05-3.841l-2.06,12.299c2.508-0.939,4.644-2.945,7.135-3.691l-2.139,12.104l7.113-3.868c-0.163,1.445-1.907,4.397-2.645,5.672
		c-1.263,2.185-14.441,7.614-17.09,8.979l-0.659,9.146l48.353,0.01l2.833-8.737l7.427-0.283c-0.4-3.219-5.925-7.911-6.19-9.89
		l7.69-0.186c-0.384-1.142-2.635-3.893-3.436-4.957c-0.726-0.963-3.146-3.961-3.45-4.979l7.68-0.155
		c-0.053-0.93-0.768-1.473-1.431-2.336c-0.68-0.884-1.202-1.686-1.824-2.531c-0.784-1.066-3.234-3.619-2.947-5.027l7.711-0.172
		c-1.064-3.408-5.735-6.56-6.876-9.877l7.664-0.235c-0.356-2.532-5.787-6.978-6.721-9.906l7.514-0.159
		c0.099-1.535-6.302-8.021-6.668-9.966l7.604-0.198c-0.363-1.898-5.819-7.408-6.767-9.882l7.605-0.211
		c-0.08-0.577-5.124-7.536-5.831-8.327c2.209,1.391,4.371,2.754,6.351,4.178l1.521-5.889l2.21-0.1
		c-0.055,1.795-0.573,5.93-0.073,7.355c1.975-0.627,4.712-3.97,6.774-4.594c2.235,10.967,3.991,22.159,5.413,33.463
		c0.825,6.555,3.919,30.229,3.378,35.348l-17.949,11.347l0.36,7.45l46.917-0.43c3.959-5.76,13.881-27.799,16.467-30.302
		l-0.094,7.265c2.373-0.891,4.342-3.695,6.525-4.569l-0.451,12.296c1.635-0.553,4.775-3.691,6.535-4.704l-0.107,5.413
		c-2.564,2.061-6.562,3.628-9.254,5.693c0.031,1.205,1.674,7.108,2.217,8.172c3.459,0.63,42.609-0.241,47.783-0.205l-1-12.116
		l6.564-1.082c-1.74-3.01-5.672-4.536-7.648-8.132c0.805-0.154,1.789-0.326,2.658-0.462c1.758-0.274,1.496-0.13,2.348-1.117
		c-1.104-1.918-7.258-6.343-7.967-8.095c1.01-0.487,2.555-0.564,3.816-0.764c0.51-0.08,1.721-0.236,2.148-0.399l1.482-1.015
		c-1.988-2.379-5.615-5.672-8.209-7.731c1.17-0.958,4.393-0.716,7.172-2.229c-1.205-1.701-7.609-6.572-7.889-8.406
		c0.352-0.295,0.09-0.178,0.664-0.424c0.57-0.244-0.062-0.041,0.74-0.231l5.43-0.837c-1.275-3.449-7.545-6.264-7.895-9.417
		c-0.512-4.601-0.693-12.147-0.525-16.794c0.283-7.803-0.969-16.553-1.779-24.271c-0.111-1.06,0.119-4.49,0.51-3.158
		c0.42,1.43,0.949,1.396,1.693,3.832c4.471,14.602,8.803,27.961,13.752,44.543c1.104,3.676,2.338,8.254,3.691,11.599l0.01-33.692
		c0.777,0.709,0.965,1.708,1.295,2.764l10.234,31.467c1.033,3.287,2.488,8.572,3.783,11.365l0.117-35.693
		c2.643,7.539,4.877,15.398,7.242,23.165c1.143,3.747,6.205,21.801,7.396,23.509l0.102-34.753
		c0.107,0.753,14.945,48.374,15.363,49.022l0.051-40.861c0.525,0.773,13.652,42.305,13.852,44.105
		c0.99-4.871-0.129-33.264,0.24-41.353c2.158,3.612,11.779,40.585,13.938,43.766l0.037-44.325c1.58,2.105,11.15,35.469,13.91,44.012
		l0.756,1.564l0.066-45.115c1.482,2.854,10.891,33.269,12.768,39.308c0.49,1.575,1.6,4.332,1.871,5.575l0.092-43.188l1.115,2.479
		c1.869,5.801,11.686,36.633,12.885,38.453l0.043-43.957l13.855,41.973l0.172-44.096c1.383,2.804,10.334,31.816,12.041,37.733
		l0.832,2.117c0.053,0.075,0.143,0.163,0.189,0.224c0.047,0.062,0.127,0.155,0.199,0.224c0.182-12.616-0.363-25.267-0.561-37.875
		c-0.016-0.94-0.035-1.875-0.059-2.815c-0.066-2.633,0.004-1.972,0.469-2.423c1.084,1.513,9.268,32.679,11.191,39.797l0.992,2.584
		c0.586-5.768,3.422-43.711,4.316-45.866c2.092-0.166,1.473,1.078,2.055,4.211l7.283,37.569c0.27,0.577,0.145,0.354,0.465,0.728
		l5.4-44.09l9.697,38.963c1.578-3.401,1.727-41.073,3.121-44.033c2.389,4.542,11.018,33.998,13.084,36.886l-0.562-32.577
		c0.408,1.369,1.564,4.188,2.074,5.799c1.283,4.06,4.898,16.364,6.383,18.803c4.49-15.901-2.721-35.657-9.918-45.762
		c-27.646-38.823-78.988-43.643-125.104-50.173c-32.775-4.641-55.076-23.882-83.279-40.056
		c-28.213-16.178-58.967-29.734-93.543-37.814c-3.72-0.869-7.572-2.247-11.4-3.23c-28.411-7.295-49.784-5.157-77.685,1.024
		c-16.445,3.643-29.474,8.632-42.979,15.545c-25.684,13.147-51.971,25.956-77.731,39.013c-12.77,6.472-25.965,13.283-38.916,19.607
		c-18.171,8.873-38.799,20.435-53.75,34.041c-1.102,1.004-2.627,2.323-3.848,3.316c-1.325,1.078-2.633,2.454-3.886,3.583
		C85.532,154.915,85.328,154.5,85.499,160.923z"/>
	<path fill="#FFFFFF" d="M172.948,110.536c-8.634,2.374-4.682,13.836,3.691,11.624C184.861,119.988,181.469,108.193,172.948,110.536
		z"/>
	<path d="M173.317,119.454c2.23,0,4.05-1.415,4.05-3.15c0-1.735-1.819-3.15-4.05-3.15s-4.05,1.415-4.05,3.15
		C169.267,118.04,171.087,119.454,173.317,119.454z"/>
</g>
</svg>
