<?xml version="1.0" encoding="utf-8"?>
<!-- Generator: Adobe Illustrator 16.0.0, SVG Export Plug-In . SVG Version: 6.00 Build 0)  -->
<svg version="1.2" baseProfile="tiny" id="Layer_1" xmlns="http://www.w3.org/2000/svg" xmlns:xlink="http://www.w3.org/1999/xlink"
	 x="0px" y="0px" width="652.015px" height="219.523px" viewBox="67.399 29.59 652.015 219.523" xml:space="preserve">
<g>
	<path d="M84.504,160.257c1.371,0.304,3.864,1.891,4.382,3.152c4.194,3.001,6.133,2.491,10.512,0.469
		c4.475-2.066,4.367-2.444,8.791-5.198c5.475-3.407,12.075-6.769,18.565-9.445c6.648-2.741,13.59-5.205,21.045-6.98
		c8.652-2.06,27.252,2.757,38.638-3.392c2.743-1.481,2.027-1.156,5.647-1.149c10.417,0.02,24.862-1.033,34.376,0.751
		c8.075,1.514,14.023,5.001,19.028,8.99c3.688,2.94,10.266,9.972,12.196,15.76c-1.053,1.004-2.608,1.819-3.171,2.952
		c1.038,0.209,2.282,0.516,3.43,0.886c1.526,0.491,1.682,1.076,1.836,2.783c-0.887,0.368-7.408,5.223-8.125,6.049l6.579,1.45
		c-1.064,1.207-3.522,2.773-4.922,3.806c-1.813,1.338-3.475,2.617-5.162,3.805c1.479,1.193,5.229,1.59,7.331,2.322
		c-1.634,1.391-3.303,2.576-4.993,3.814c-1.523,1.115-3.819,2.564-5.068,3.859c1.041,0.742,5.631,1.793,7.176,2.088
		c-0.467,0.852,0.05,0.082-0.475,0.623l-1.972,1.49c-1.881,1.414-6.397,4.168-7.525,5.76l7.128,2.107
		c-1.634,2.409-7.783,5.34-9.985,7.877l7.839,2.025l-1.196,1.24c-2.761,2.111-6.272,4.125-8.78,6.592l7.942,2.109
		c-3.149,2.227-20.044,10.354-23.546,12.008l-0.036,9.246l54.048,0.021l1.402-4.835l6.851,4.031l-1.196-12.36
		c2.525,0.833,4.454,2.95,6.894,3.75l-1.295-12.228c2.617,0.889,4.399,2.853,6.908,3.722l-1.297-12.242
		c2.583,0.781,4.382,2.896,6.877,3.765l-1.269-12.276l6.83,3.874l-1.219-12.354l6.829,3.863l-0.767-11.775
		c1.878,2.268,13.858,23.062,15.777,26.303c1.672,2.824,4.307,6.179,4.672,9.943c-0.922,0.338-13.753,9.471-14.612,10.459
		l-0.016,7.561l46.339,0.099c0.321-2.922-0.339-46.164-0.309-51.241c0.051-8.508-0.019-17.087,0.357-25.549
		c0.236-5.297,0.057-6.759,3.777-9.104l9.125-3.987l0.437,1.156c0.023,0.059,0.073,0.169,0.092,0.217
		c0.019,0.047,0.05,0.15,0.094,0.214l2.447-1.6c1.167,1.051,3.336,3.83,4.029,5.329l-2.672,2.695
		c2.849,1.079,4.924,0.495,6.191,3.547c-1.329,1.924-4.024,3.742-5.796,5.447c-0.207,0.2-0.219,0.175-0.445,0.489
		c-0.407,0.563-0.07-0.104-0.326,0.601l6.723,1.442c-1.342,2.451-6.813,5.418-8.246,7.896l7.728,2.162
		c-1.628,2.116-7.512,6.262-8.367,8.035c1.817,0.426,6.619,1.264,7.659,2.254c-1.863,1.939-7.297,5.848-8.315,7.766l7.749,2.06
		c-2.008,2.453-6.934,5.733-8.267,7.919l8.289,2.119l-0.789,1.111c-2.288,2.127-5.582,4.269-7.36,6.731
		c1.127,0.735,2.847,0.918,4.141,1.229l4.123,1.344l-9.685,5.482c0.465,1.058,1.142,1.42,1.898,2.218
		c-0.999,1.356-8.352,5.149-9.702,5.882l-0.433,7.691l43.029,0.131l1.197-4.135c0.185-0.391,0.216-0.416,0.378-0.621l6.674,3.908
		l-1.214-12.379l6.867,3.905l-1.258-12.421l6.862,3.959l-1.201-11.992c2.755,0.68,4.801,2.762,6.89,3.369l-1.028-9.736l3.242,1.697
		l-0.064-2.229c0.898,0.797,12.578,18.898,12.879,19.901c-3.511,1.496-8.996,5.331-12.502,7.362c0.37,2.068,1.508,6.855,2.496,8.303
		l45.283-0.335c0.055-9.062-0.674-19.31-1.144-28.263c-0.505-9.614-0.554-19.129-1.142-28.67
		c-0.86-13.981-0.737-28.176-2.044-42.164c-0.372-3.988-1.439-9.69-1.413-13.389c0.677,1.271,0.906,3.093,1.354,4.621
		c0.42,1.43,0.949,1.396,1.695,3.832c1.801,5.884,7.087,23.581,9.661,27.049l0.103-31.732c4.094,11.157,7.558,23.995,11.036,35.579
		c1.104,3.675,2.337,8.254,3.691,11.598l0.011-33.692c0.776,0.709,0.964,1.708,1.294,2.763l10.234,31.468
		c1.032,3.286,2.488,8.572,3.783,11.365l0.117-35.694c2.642,7.539,4.876,15.399,7.242,23.166c1.142,3.748,6.205,21.802,7.396,23.509
		l0.104-34.752c0.106,0.748,14.94,48.368,15.362,49.023l0.052-40.862c0.524,0.775,13.65,42.305,13.85,44.105
		c0.991-4.87-0.129-33.264,0.241-41.353c2.158,3.613,11.78,40.585,13.938,43.767l0.036-44.326
		c1.581,2.105,11.149,35.47,13.91,44.012l0.757,1.564l0.065-45.115c1.483,2.854,10.892,33.27,12.769,39.308
		c0.49,1.576,1.599,4.332,1.871,5.575l0.092-43.188l1.114,2.479c1.869,5.8,11.688,36.632,12.886,38.453l0.043-43.957l13.854,41.972
		l0.172-44.095c1.298,2.634,2.435,7.043,3.347,10.01l8.769,27.96c0.265,0.904,0.493,1.846,1.107,2.535
		c0.341-6.439-1.008-38.881-0.589-42.144c0.253-1.961-0.134-0.586,0.479-1.178c1.083,1.513,9.266,32.679,11.19,39.796l0.991,2.584
		c0.586-5.768,3.422-43.71,4.318-45.866c2.091-0.167,1.472,1.078,2.053,4.21l7.285,37.569c0.268,0.578,0.144,0.354,0.463,0.728
		l5.401-44.089l9.696,38.962c1.576-3.396,1.728-41.076,3.12-44.033c2.389,4.542,11.018,33.998,13.084,36.886l-0.531-31.672
		c1.419,1.255,1.789,4.11,2.342,5.829c1.24,3.869,4.647,15.509,6.085,17.868c4.488-15.898-2.719-35.654-9.919-45.763
		c-27.647-38.823-78.974-43.64-125.104-50.172c-16.667-2.36-33.15-5.081-48.881-9.338c-16.109-4.359-28.56-9.676-41.448-17.067
		C464.46,59.066,433.707,45.51,399.13,37.43c-3.72-0.869-7.572-2.247-11.4-3.23c-28.412-7.295-49.785-5.157-77.685,1.024
		c-16.445,3.643-29.474,8.632-42.979,15.545c-12.922,6.614-25.84,13.01-38.949,19.579c-13.092,6.561-25.774,12.841-38.782,19.434
		c-12.77,6.472-25.965,13.283-38.916,19.607c-6.295,3.074-13.248,6.525-19.324,9.942c-9.643,5.422-17.885,11.118-26.361,17.534
		c-4.123,3.121-7.877,6.598-11.912,9.88l-7.578,7.056C84.002,155.13,84.468,158.195,84.504,160.257z"/>
	<path fill="#FEAFF9" d="M88.886,163.409c-0.519-1.261-3.011-2.848-4.382-3.152c0.33,1.205-2.907,7.409-3.646,9.067
		c-6.899,15.477-11.518,36.33-12.956,53.309c-0.363,4.282-0.546,8.451-0.494,12.777c0.018,1.482,0.028,10.693,0.737,12.142
		l2.267-23.923c1.824-16.658,6.236-37.257,12.82-52.563C84.719,167.605,85.324,164.838,88.886,163.409z"/>
	<path fill="#FFFFFF" d="M171.96,109.909c-8.634,2.374-4.682,13.836,3.691,11.624C183.873,119.361,180.481,107.566,171.96,109.909z"
		/>
	<path d="M172.329,120.268c2.23,0,4.05-1.415,4.05-3.15c0-1.735-1.819-3.15-4.05-3.15s-4.05,1.415-4.05,3.15
		C168.279,118.853,170.099,120.268,172.329,120.268z"/>
</g>
</svg>
