<?xml version="1.0" encoding="utf-8"?>
<!-- Generator: Adobe Illustrator 16.0.0, SVG Export Plug-In . SVG Version: 6.00 Build 0)  -->
<svg version="1.2" baseProfile="tiny" id="Layer_1" xmlns="http://www.w3.org/2000/svg" xmlns:xlink="http://www.w3.org/1999/xlink"
	 x="0px" y="0px" width="564.4px" height="349.34px" viewBox="0 0 564.4 349.34" xml:space="preserve">
<g>
	<path fill-rule="evenodd" fill="#0090CA" d="M277.027,148.021l9.249-55.873l95.822-37.469l-82.991,44.287l0.36,55.699
		C292.709,151.517,285.208,148.96,277.027,148.021"/>
	<path fill-rule="evenodd" fill="#0090CA" d="M345.896,143.721l42.644-79.726l58.959-11.172l58.958-11.168L564.4,59.933l-56.413-13.729
		L405.491,70.228l-35.248,89.58C364.772,151.655,351.562,144.637,345.896,143.721"/>
	<path fill-rule="evenodd" fill="#0090CA" d="M254.826,150.117l-69.631-60.069l119.35-77.492l-96.873,78.996l64.863,54.804
		C266.554,146.96,260.615,148.374,254.826,150.117"/>
	<path fill-rule="evenodd" fill="#0090CA" d="M128.647,188.162l-45.87-0.975L0,242.046l82.999-48.602l51.363,13.625
		C130.601,199.582,129.316,193.05,128.647,188.162"/>
	<path fill-rule="evenodd" fill="#0090CA" d="M277.027,202.802l9.249,55.875l95.822,37.469l-82.991-44.287l0.36-55.701
		C292.709,199.306,285.208,201.863,277.027,202.802"/>
	<path fill-rule="evenodd" fill="#0090CA" d="M345.896,207.103l42.644,79.727L447.498,298l58.958,11.168L564.4,290.89l-56.413,13.729
		l-102.496-24.021l-35.248-89.58C364.772,199.169,351.562,206.187,345.896,207.103"/>
	<path fill-rule="evenodd" fill="#0090CA" d="M254.826,200.707l-69.631,60.07l119.35,77.49l-96.873-78.994l64.863-54.805
		C266.554,203.865,260.615,202.449,254.826,200.707"/>
	<path fill-rule="evenodd" fill="#0090CA" d="M128.647,160.772l-45.87,0.992L0.085,106.776l82.914,48.73l51.363-13.644
		C130.601,149.352,129.316,155.883,128.647,160.772"/>
	<path fill-rule="evenodd" fill="#0090CA" d="M470.513,224.347c43.321,0,78.653-22.117,78.653-49.235c0-27.117-35.332-49.235-78.653-49.235
		c-43.32,0-78.652,22.118-78.652,49.235C391.86,202.23,427.192,224.347,470.513,224.347"/>
	<path fill-rule="evenodd" fill="#0090CA" d="M176.703,239.49c29.392,0,53.363-28.92,53.363-64.378c0-35.458-23.972-64.378-53.363-64.378
		c-29.393,0-53.365,28.921-53.365,64.378C123.338,210.57,147.311,239.49,176.703,239.49"/>
	<path fill-rule="evenodd" fill="#0090CA" d="M359.931,209.363c18.854,0,34.23-15.387,34.23-34.253c0-18.865-15.377-34.252-34.23-34.252
		c-18.853,0-34.229,15.387-34.229,34.252C325.702,193.976,341.078,209.363,359.931,209.363"/>
	<path fill-rule="evenodd" fill="#0090CA" d="M280.602,206.47c28.795,0,52.28-14.088,52.28-31.358c0-17.271-23.485-31.357-52.28-31.357
		s-52.279,14.085-52.279,31.357C228.322,192.382,251.807,206.47,280.602,206.47"/>
	<path fill-rule="evenodd" fill="#FFFFFF" d="M162.746,155.401c9.034,0,16.4-7.024,16.4-15.636c0-8.613-7.366-15.637-16.4-15.637
		c-9.033,0-16.4,7.023-16.4,15.637C146.346,148.377,153.713,155.401,162.746,155.401"/>
	<path fill-rule="evenodd" fill="#FFFFFF" d="M162.746,155.401c9.034,0,16.4-7.024,16.4-15.636c0-8.613-7.366-15.637-16.4-15.637
		c-9.033,0-16.4,7.023-16.4,15.637C146.346,148.377,153.713,155.401,162.746,155.401"/>
	<path fill-rule="evenodd" fill="#FFFFFF" d="M162.746,155.401c9.034,0,16.4-7.024,16.4-15.636c0-8.613-7.366-15.637-16.4-15.637
		c-9.033,0-16.4,7.023-16.4,15.637C146.346,148.377,153.713,155.401,162.746,155.401"/>
	<path fill-rule="evenodd" fill="#FFFFFF" d="M162.63,223.943c9.032,0,16.399-7.023,16.399-15.637
		c0-8.611-7.367-15.637-16.399-15.637c-9.033,0-16.4,7.025-16.4,15.637C146.229,216.919,153.597,223.943,162.63,223.943"/>
</g>
</svg>
