<?xml version="1.0" encoding="utf-8"?>
<!-- Generator: Adobe Illustrator 16.0.0, SVG Export Plug-In . SVG Version: 6.00 Build 0)  -->
<svg version="1.2" baseProfile="tiny" id="Layer_1" xmlns="http://www.w3.org/2000/svg" xmlns:xlink="http://www.w3.org/1999/xlink"
	 x="0px" y="0px" width="564.4px" height="349.34px" viewBox="0 0 564.4 349.34" xml:space="preserve">
<g>
	<path fill-rule="evenodd" fill="#37972D" d="M470.552,223.676c43.321,0,78.653-22.117,78.653-49.235c0-27.117-35.332-49.235-78.653-49.235
		c-43.32,0-78.652,22.118-78.652,49.235C391.899,201.559,427.231,223.676,470.552,223.676"/>
	<path fill-rule="evenodd" fill="#37972D" d="M176.742,238.82c29.392,0,53.364-28.92,53.364-64.378s-23.972-64.378-53.364-64.378
		s-53.364,28.92-53.364,64.378S147.35,238.82,176.742,238.82"/>
	<path fill-rule="evenodd" fill="#37972D" d="M359.97,208.693c18.854,0,34.23-15.387,34.23-34.253s-15.377-34.253-34.23-34.253
		c-18.853,0-34.229,15.387-34.229,34.253S341.117,208.693,359.97,208.693"/>
	<path fill-rule="evenodd" fill="#37972D" d="M280.641,205.799c28.795,0,52.28-14.087,52.28-31.357c0-17.272-23.485-31.358-52.28-31.358
		s-52.28,14.086-52.28,31.358C228.361,191.712,251.846,205.799,280.641,205.799"/>
	<path fill-rule="evenodd" fill="#37972D" d="M270.09,148.724l-69.63-60.07L227.775,0l-4.838,90.158l64.862,54.804
		C281.818,145.566,275.879,146.981,270.09,148.724"/>
	<path fill-rule="evenodd" fill="#37972D" d="M126.994,159.643l-39.838,3.113l-71.818-51.163l72.01,44.896l44.61-16.019
		C128.691,148.132,127.575,154.724,126.994,159.643"/>
	<path fill-rule="evenodd" fill="#37972D" d="M126.994,186.502l-39.838-3.113l-71.818,51.163l72.01-44.896l44.61,16.02
		C128.691,198.013,127.575,191.421,126.994,186.502"/>
	<path fill-rule="evenodd" fill="#FFFFFF" d="M162.785,154.731c9.033,0,16.4-7.025,16.4-15.637c0-8.613-7.367-15.637-16.4-15.637
		c-9.033,0-16.4,7.024-16.4,15.637C146.385,147.707,153.752,154.731,162.785,154.731"/>
	<path fill-rule="evenodd" fill="#FFFFFF" d="M162.785,154.731c9.033,0,16.4-7.025,16.4-15.637c0-8.613-7.367-15.637-16.4-15.637
		c-9.033,0-16.4,7.024-16.4,15.637C146.385,147.707,153.752,154.731,162.785,154.731"/>
	<path fill-rule="evenodd" fill="#FFFFFF" d="M162.785,154.731c9.033,0,16.4-7.025,16.4-15.637c0-8.613-7.367-15.637-16.4-15.637
		c-9.033,0-16.4,7.024-16.4,15.637C146.385,147.707,153.752,154.731,162.785,154.731"/>
	<path fill-rule="evenodd" fill="#FFFFFF" d="M162.669,223.273c9.033,0,16.4-7.024,16.4-15.638c0-8.611-7.367-15.637-16.4-15.637
		c-9.033,0-16.4,7.025-16.4,15.637C146.269,216.249,153.636,223.273,162.669,223.273"/>
	<path fill-rule="evenodd" fill="#37972D" d="M285.331,146.628l-23.753-55.874l73.691-37.469l-56.834,44.287l33.26,55.7
		C303.076,150.124,294.065,147.567,285.331,146.628"/>
	<path fill-rule="evenodd" fill="#37972D" d="M351.658,142.328l-4.446-79.726l52.359-11.171l52.362-11.168l68.74,18.277l-64.521-13.729
		l-88.308,24.023l17.663,89.58C375.223,150.263,357.865,143.244,351.658,142.328"/>
	<path fill-rule="evenodd" fill="#37972D" d="M270.09,200.617l-69.63,60.069l27.315,88.654l-4.838-90.158l64.862-54.804
		C281.818,203.774,275.879,202.359,270.09,200.617"/>
	<path fill-rule="evenodd" fill="#37972D" d="M285.331,202.712l-23.753,55.874l73.691,37.469l-56.834-44.287l33.26-55.699
		C303.076,199.216,294.065,201.774,285.331,202.712"/>
	<path fill-rule="evenodd" fill="#37972D" d="M351.658,207.012l-4.446,79.727l52.359,11.171l52.362,11.168l68.74-18.277l-64.521,13.729
		l-88.308-24.023l17.663-89.58C375.223,199.079,357.865,206.096,351.658,207.012"/>
</g>
</svg>
