<?xml version="1.0" encoding="utf-8"?>
<!-- Generator: Adobe Illustrator 16.0.0, SVG Export Plug-In . SVG Version: 6.00 Build 0)  -->
<svg version="1.2" baseProfile="tiny" id="Layer_1" xmlns="http://www.w3.org/2000/svg" xmlns:xlink="http://www.w3.org/1999/xlink"
	 x="0px" y="0px" width="48px" height="48px" viewBox="0 0 48 48" xml:space="preserve">
<g>
	<path fill="#5B3636" d="M45.001,24.572H3c-1.654,0-2.997,1.341-3,2.995v0.01c0.003,1.653,1.345,2.995,3,2.995h42.001
		c1.656,0,2.999-1.345,2.999-3C48,25.916,46.657,24.572,45.001,24.572z"/>
	<rect x="1.5" y="20.707" fill="#E70F0D" width="45.001" height="3"/>
	<path fill="#D5AA5E" d="M24.006,3.604c-11.999,0-22.499,4.5-22.499,10.5h45.001C46.508,8.104,36.007,3.604,24.006,3.604z"/>
	<path fill="#1EA321" d="M46.893,16.385c-1.016,0.048-1.985-0.18-2.936-0.505c-1.839-0.626-3.681-0.641-5.513,0
		c-1.963,0.685-3.915,0.688-5.878,0.003c-1.845-0.644-3.702-0.638-5.548,0.008c-1.936,0.677-3.868,0.68-5.804,0.005
		c-1.873-0.653-3.735-0.618-5.623-0.007c-0.799,0.257-1.646,0.403-2.483,0.49c-1.203,0.124-2.361-0.169-3.5-0.55
		c-1.437-0.48-2.901-0.562-4.38-0.211c-1.006,0.238-2.009,0.499-3.017,0.73c-0.276,0.063-0.568,0.054-0.843,0.078v3.28
		c0.116,0.006,0.217,0.03,0.311,0.013c0.842-0.16,1.707-0.249,2.518-0.505c1.902-0.602,3.781-0.638,5.665,0.018
		c1.912,0.666,3.817,0.663,5.729-0.001c1.885-0.656,3.764-0.624,5.664-0.012c0.775,0.25,1.595,0.398,2.406,0.486
		c1.215,0.132,2.386-0.157,3.538-0.54c1.736-0.578,3.476-0.536,5.228-0.012c0.842,0.252,1.713,0.447,2.586,0.55
		c1.225,0.143,2.41-0.151,3.575-0.539c1.734-0.578,3.483-0.571,5.223,0.001c1.003,0.33,2.016,0.586,3.082,0.565V16.385z"/>
	<path fill="#D5AA5E" d="M39,39.665c4.144,0,7.5-3.358,7.5-7.5H34.809h-5.285H16.292H7.795H1.5c0,4.142,3.358,7.5,7.501,7.5H39z"/>
</g>
</svg>
