<?xml version="1.0" encoding="utf-8"?>
<!-- Generator: Adobe Illustrator 16.0.0, SVG Export Plug-In . SVG Version: 6.00 Build 0)  -->
<svg version="1.2" baseProfile="tiny" id="Layer_1" xmlns="http://www.w3.org/2000/svg" xmlns:xlink="http://www.w3.org/1999/xlink"
	 x="0px" y="0px" width="48px" height="48px" viewBox="0 0 48 48" xml:space="preserve">
<g>
	<path fill="#4448A1" d="M23.056,2.452c-2.872,0.01-5.822,0.896-8.409,2.719c-4.644,3.271-6.838,8.657-6.06,13.644
		c1.713-0.619,3.573-0.963,5.519-0.963c2.677,0,5.194,0.643,7.384,1.772c2.865-3.056,7.064-4.988,11.75-4.988
		c0.96,0,1.898,0.083,2.81,0.238c-0.041-2.47-0.777-4.915-2.274-7.041C31.283,4.297,27.253,2.438,23.056,2.452z M22.796,7.637
		l-1.228,1.862l-1.784-0.225l-2.938,1.191L16.7,9.302l-2.437-0.378l1.6-1.228l-0.1-1.662l2.14-0.366l2.313-1.697l1.069,0.772
		l2.984-0.45l-0.806,1.325l1.41,1.134L22.796,7.637z"/>
	<polygon fill="#263367" points="24.269,4.293 21.285,4.743 20.216,3.971 17.903,5.668 15.763,6.034 15.863,7.696 14.263,8.924 
		16.7,9.302 16.847,10.465 19.785,9.274 21.568,9.499 22.796,7.637 24.872,6.752 23.462,5.618 	"/>
	<path fill="#4448A1" d="M33.894,16.065c-4.273,0-8.101,1.779-10.688,4.588c3.779,2.611,6.229,6.806,6.229,11.537
		c0,3.113-1.061,5.996-2.862,8.348c2.134,1.214,4.642,1.912,7.321,1.912c7.79,0,14.106-5.904,14.106-13.19
		S41.684,16.065,33.894,16.065z M41.39,24.214l-2.124-0.772l-2.228,0.55l-1.114-1.399l-2.967-1.138l0.737-0.973l-1.478-1.966
		l2.033,0.183l1.128-1.314l1.802,1.202l2.878,0.327l0.212,1.318l2.466,1.723l-1.536,0.437L41.39,24.214z"/>
	<polygon fill="#263367" points="40.27,20.232 40.058,18.914 37.18,18.587 35.378,17.385 34.25,18.699 32.217,18.516 33.694,20.482 
		32.957,21.455 35.924,22.593 37.038,23.992 39.266,23.442 41.39,24.214 41.199,22.392 42.735,21.955 	"/>
	<path fill="#4448A1" d="M14.106,45.384c7.79,0,14.106-5.907,14.106-13.193s-6.316-13.194-14.106-13.194
		C6.316,18.996,0,24.904,0,32.19S6.316,45.384,14.106,45.384z M11.348,23.565l0.647-1.989l2.564,0.505l3.363-0.975l0.846,1.368
		l3.545,0.775l-1.507,1.202l1.06,1.938l-2.727,0.131l-2.226,1.646l-1.892-1.041l-3.833,0.112l0.368-1.426L9,24.303L11.348,23.565z"
		/>
	<polygon fill="#263367" points="11.188,27.236 15.021,27.124 16.913,28.165 19.139,26.52 21.866,26.389 20.806,24.451 
		22.312,23.249 18.768,22.474 17.922,21.106 14.559,22.081 11.995,21.576 11.348,23.565 9,24.303 11.556,25.811 	"/>
</g>
</svg>
