<?xml version="1.0" encoding="utf-8"?>
<!-- Generator: Adobe Illustrator 16.0.0, SVG Export Plug-In . SVG Version: 6.00 Build 0)  -->
<svg version="1.2" baseProfile="tiny" id="Layer_1" xmlns="http://www.w3.org/2000/svg" xmlns:xlink="http://www.w3.org/1999/xlink"
	 x="0px" y="0px" width="48px" height="48px" viewBox="0 0 48 48" xml:space="preserve">
<g>
	<path fill="#006837" d="M39.987,16.849c-4.447-2.016-10.213-3.684-16.02-4.787c-1.044-0.612-2.313-1.034-3.825-1.286
		c-0.955-0.16-1.863-0.209-2.722-0.165c0.854-0.043,1.755,0.006,2.704,0.165c1.512,0.252,2.781,0.674,3.825,1.286
		c0.94,0.482,1.368,0.928,2.677,2.639c1.22,1.922,2.114,3.944,0.818,6.192c-0.61,1.059-2.396,1.788-5.221,1.845
		c2.834-0.055,4.626-0.784,5.237-1.845c1.296-2.249,0.402-4.271-0.817-6.193c4.58,1.054,8.967,2.476,12.497,4.076
		c5.326,2.413,7.013,4.477,6.84,5.513c-0.018,0.104-0.053,0.211-0.107,0.316c-0.802,1.573-5.631,3.07-13.909,3.07
		c-3.993,0-8.236-0.356-12.269-1.029c-5.898-0.982-10.584-2.51-13.55-4.412C4.42,21.129,2.114,19.277,2.801,17.2
		c1.128-3.413,4.364-3.966,8.578-4.205c0,0,0.001,0,0.001,0c1.517-1.166,2.898-1.866,3.604-1.987
		c-0.615-0.026-1.219-0.034-1.801-0.034c-6.064,0-10.047,1.465-11.662,4.112c-2.493,4.086-1.681,11.329,0.706,15.232
		c2.743,4.484,7.678,7.438,14.271,8.539c2.123,0.354,4.328,0.534,6.553,0.534c5.954,0,11.646-1.277,16.032-3.599
		c5.03-2.662,8.484-7.054,8.905-11.467C48.265,21.434,43.902,18.624,39.987,16.849z"/>
	<path fill="#D7EB87" d="M17.73,22.367c-5.446-0.909-8.508-2.781-8.917-4.416c-0.49-1.96,1.039-3.597,2.566-4.957
		C7.165,13.233,3.93,13.787,2.801,17.2c-0.687,2.077,1.619,3.929,3.345,5.036c2.966,1.902,7.652,3.429,13.55,4.412
		c4.032,0.673,8.275,1.029,12.269,1.029c8.278,0,13.107-1.497,13.909-3.07c0.055-0.105,0.09-0.212,0.107-0.316
		c0.173-1.036-1.514-3.1-6.84-5.513c-3.53-1.6-7.917-3.022-12.497-4.076c1.22,1.922,2.113,3.944,0.817,6.193
		c-0.611,1.061-2.403,1.79-5.237,1.845C20.938,22.765,19.435,22.651,17.73,22.367z"/>
	<path fill="#563422" d="M11.379,12.995c-1.527,1.36-3.056,2.996-2.566,4.957c0.409,1.635,3.471,3.507,8.917,4.416
		c1.705,0.284,3.208,0.397,4.495,0.371c2.824-0.058,4.61-0.786,5.221-1.845c1.296-2.248,0.401-4.27-0.818-6.192
		c-1.31-1.711-1.737-2.157-2.677-2.639c-1.044-0.612-2.313-1.034-3.825-1.286c-0.949-0.159-1.851-0.208-2.704-0.165
		c-0.864,0.043-1.678,0.18-2.437,0.396h0C14.278,11.128,12.896,11.829,11.379,12.995C11.38,12.994,11.379,12.995,11.379,12.995z"/>
</g>
</svg>
