<?xml version="1.0" encoding="utf-8"?>
<!-- Generator: Adobe Illustrator 16.0.0, SVG Export Plug-In . SVG Version: 6.00 Build 0)  -->
<svg version="1.2" baseProfile="tiny" id="Layer_1" xmlns="http://www.w3.org/2000/svg" xmlns:xlink="http://www.w3.org/1999/xlink"
	 x="0px" y="0px" width="383.268px" height="383.956px" viewBox="0 0 383.268 383.956" xml:space="preserve">
<path fill-rule="evenodd" fill="#E6E6E5" d="M179.344,110.129c50.738-8.035,89.792,27.196,96.526,69.457
	c8.016,50.327-27.588,90.02-69.084,97.026c-50.278,8.487-90.684-27.119-97.76-68.162
	C99.974,155.969,135.827,117.022,179.344,110.129 M383.268,242.914c-1.102-14.17-6.202-27.598-17.279-40.135
	c-11.588-13.114-39.903-32.972-55.626-59.039c-19.374-32.119-18.091-71.651-62.771-109.225
	C195.819-9.021,134.707-10.212,78.114,24.412C33.591,51.649,14.023,96.442,3.839,147.124
	c-9.664,48.103-3.221,120.798,44.219,144.257c24.004,11.869,57.794,6.094,85.333,13.159c32.868,8.433,37.52,20.686,57.666,40.828
	c12.812,12.812,37.844,38.588,61.376,38.588c22.62,0,37.122-3.561,56.754-16.748c29.852-20.052,59.397-50.773,69.383-86.442
	c2.424-8.657,4.106-17.121,4.698-25.362V242.914z"/>
<path fill-rule="evenodd" fill="#F58C1D" d="M199.218,144.049c-8.201,4.296-19.792,3.72-27.753,7.538
	c-28.722,13.777-21.676,52.7-34.712,51.116c-4.463-0.541-7.039-4.599-7.739-8.579c-5.332-30.307,36.264-73.4,69.957-62.477
	C200.375,136.526,200.52,139.98,199.218,144.049 M179.344,110.129c-43.517,6.893-79.369,45.84-70.318,98.321
	c7.077,41.043,47.482,76.649,97.76,68.162c41.496-7.006,77.101-46.699,69.084-97.026
	C269.137,137.325,230.083,102.094,179.344,110.129"/>
<path fill-rule="evenodd" fill="#FBFAF9" d="M199.218,144.049c1.302-4.07,1.155-7.523-0.247-12.402
	c-33.693-10.923-75.29,32.17-69.958,62.478c0.7,3.979,3.277,8.036,7.739,8.578c13.036,1.583,5.99-37.338,34.712-51.117
	C179.426,147.768,191.017,148.345,199.218,144.049"/>
</svg>
