<?xml version="1.0" encoding="utf-8"?>
<!-- Generator: Adobe Illustrator 16.0.0, SVG Export Plug-In . SVG Version: 6.00 Build 0)  -->
<svg version="1.2" baseProfile="tiny" id="Layer_1" xmlns="http://www.w3.org/2000/svg" xmlns:xlink="http://www.w3.org/1999/xlink"
	 x="0px" y="0px" width="48px" height="48px" viewBox="0 0 48 48" xml:space="preserve">
<g>
	<path fill="#F388CA" d="M17.023,8.942c0,0-2.896,4.44,0.154,8.186c2.358,2.895,8.716,1.219,10.258,7.312H31.7
		c0.086-0.774,0.078-1.618-0.055-2.531C30.256,12.358,21.54,17.094,17.023,8.942z"/>
	<path fill="#F388CA" d="M18.438,9.327c4.083,4.623,6.618,3.211,10.813,6.12c0,0,0.756-2.308-1.028-5.201
		C26.275,7.089,18.824,8.419,19.211,0C19.211,0,15.967,6.529,18.438,9.327z"/>
	<path fill="#F388CA" d="M26.267,24.439c-1.069-4.818-7.078-3.158-10.073-6.894c0,0-4.204,2.778-2.197,6.421L26.267,24.439z"/>
	<polygon fill="#CFB48D" points="31.574,25.687 13.974,25.25 13.974,31.632 31.574,32.053 	"/>
	<polygon fill="#CFB48D" points="26.268,47.75 30.134,33.212 15.78,32.686 19.86,47.75 	"/>
</g>
</svg>
