<?xml version="1.0" encoding="utf-8"?>
<!-- Generator: Adobe Illustrator 16.0.0, SVG Export Plug-In . SVG Version: 6.00 Build 0)  -->
<svg version="1.2" baseProfile="tiny" id="Layer_1" xmlns="http://www.w3.org/2000/svg" xmlns:xlink="http://www.w3.org/1999/xlink"
	 x="0px" y="0px" width="48px" height="48px" viewBox="0 0 48 48" xml:space="preserve">
<rect x="6.443" y="20.58" fill="#42210B" width="30.596" height="17.468"/>
<g>
	<path fill="none" d="M27.356,26.598c-0.73-0.209-1.775,0.836-2.299,2.402c-0.521,1.567-0.312,3.03,0.418,3.239
		c0.732,0.209,1.777-0.836,2.299-2.403C28.297,28.27,28.088,26.807,27.356,26.598z"/>
	<path fill="none" d="M16.909,26.493c-0.731,0.209-0.94,1.671-0.418,3.238s1.567,2.611,2.299,2.403
		c0.731-0.209,0.94-1.672,0.418-3.238C18.685,27.328,17.64,26.284,16.909,26.493z"/>
	<path fill="#ED1C24" d="M34.462,11.029c-3.135-0.731-6.374,0.627-9.195,3.239c-0.626,0.523-1.358,0.941-2.089,1.045v0h-2.09v0l0,0
		c-0.731-0.209-1.463-0.522-2.089-1.149c-2.821-2.717-6.06-3.97-9.195-3.239c-6.478,1.463-9.716,10.97-7.313,21.105
		C4.894,42.27,11.998,49.27,18.476,47.808c0.836-0.209,1.672-0.523,2.403-0.941c0.732-0.522,1.776-0.522,2.508,0
		c0.731,0.418,1.567,0.732,2.403,0.941c6.478,1.462,13.582-5.643,15.984-15.777C44.073,21.895,40.835,12.492,34.462,11.029z
		 M18.79,32.135c-0.732,0.208-1.777-0.836-2.299-2.403s-0.313-3.029,0.418-3.238s1.776,0.835,2.299,2.403
		C19.729,30.463,19.521,31.926,18.79,32.135z M27.774,29.836c-0.521,1.567-1.566,2.612-2.299,2.403
		c-0.73-0.209-0.939-1.672-0.418-3.239c0.523-1.566,1.568-2.611,2.299-2.402C28.088,26.807,28.297,28.27,27.774,29.836z"/>
	<path fill="#603813" d="M23.178,15.313L23.178,15.313c0.209-1.568,2.09-10.762,12.538-13.165c0.521-0.104,0.835-0.627,0.73-1.149
		s-0.627-0.836-1.148-0.731C32.163,1,29.655,2.253,27.774,3.82l0,0c0,0,0,0,0,0c-0.281,0.259-1.11,0.988-1.557,1.349l-0.01,0.008
		c-4.387,4.387-5.12,9.922-5.12,10.135v0H23.178z"/>
	<path fill="#009D4B" d="M27.774,3.82c-1.463-2.09-4.63-1.942-6.092-1.629c-0.105-0.209-0.314-0.313-0.418-0.522
		C19.07-0.211,13.95-2.405,5.8,6.79C5.278,7.416,5.487,8.251,6.218,8.565c11.702,3.761,15.046-0.732,15.882-3.553
		c0.104-0.313,0.104-0.627,0.104-0.94c1.149-0.209,3.272-0.148,4.002,1.106c0.003-0.002,0.008-0.006,0.011-0.009
		C26.664,4.809,27.493,4.08,27.774,3.82C27.774,3.821,27.774,3.821,27.774,3.82z"/>
</g>
</svg>
