<?xml version="1.0" encoding="utf-8"?>
<!-- Generator: Adobe Illustrator 16.0.0, SVG Export Plug-In . SVG Version: 6.00 Build 0)  -->
<svg version="1.2" baseProfile="tiny" id="Layer_1" xmlns="http://www.w3.org/2000/svg" xmlns:xlink="http://www.w3.org/1999/xlink"
	 x="0px" y="0px" width="270.6px" height="365.681px" viewBox="0 0 270.6 365.681" xml:space="preserve">
<path fill-rule="evenodd" fill="#D69E66" d="M217.577,84.105c-6.851-4.587-11.774-10.828-17.825-16.916
	c-24.226-24.368-37.17-22.31-40.031-33.105C153.13,9.219,162.917,1.259,137.501,0h-10.648c-20.151,1.516-8.79,13.931-16.356,35.533
	c-2.685,7.664,1.442,2.256-6.16,6.638c-39.808,22.943-33.61,30.681-53.143,43.761c1.518-6.522,3.336-41.763,1.464-50.831
	c-1.715-8.312-1.946-9.332-16.495-12.772c-9.415-2.226-12.802-2.427-21.539-0.391C8.934,33.801,3.297,81.93,6.461,101.409
	c2.172,13.379,4.451,23.98,10.728,33.154c7.131,10.419,13.77,15.365,30.346,15.365c0,11.02,0.244,25.798,3.659,32.911
	c-12.251-0.274-42.975-7.377-50.227,26.567c-0.449,2.103-0.764,4.277-0.967,6.506v12.469c2.163,26.99,17.164,57.688,29.678,71.049
	c7.627,8.145,25.727,22.295,27.117,33.349c3.505,27.875-13.955,9.336-20.522,20.006c-3.038,4.94,1.257,8.873,3.95,12.894
	c25.485,0,16.756-1.678,24.429-2.582c5.215-0.614,3.844,1.287,10.469,2.327c0.75,0.117,1.577,0.201,2.455,0.258h11.403l0.609-0.003
	l5.798-7.031c-3.448-13.746-4.55-7.229-16.691-9.502c-8.645-1.617-5.563-9.277-5.563-20.033c9.88-0.823,10.15-2.237,14.704-18.209
	c2.385-8.369,1.752-20.178,1.752-31.158c9.126,6.108,34.103,24.783,45.715,24.811c10.783,0.026,36.524-18.663,45.707-24.811
	c0,17.553-0.622,27.953,5.409,42.128c1.486,3.49,0.514,1.926,2.723,4.591c1.387,1.672,1.54,0.21,4.665,4.475
	c0,20.079,3.788,16.72-12.775,18.334c-13.768,1.342-7.83,10.206-3.681,16.406c25.487,0,16.756-1.678,24.432-2.582
	c5.216-0.614,3.844,1.287,10.468,2.327c0.749,0.117,1.576,0.201,2.455,0.258h11.404l0.609-0.003l5.796-7.031
	c-3.175-12.576-5.846-9.424-20.423-9.424c-1.16-5.473,0-12.11,0-21.94c8.632-2.305,3.244-2.49,15.989-15.094
	c6.099-6.027,10.609-9.952,15.904-17.007c8.986-11.963,16.875-26.303,21.818-42.175c2.194-7.043,4.097-15.568,4.796-24.209v-13.22
	c-0.572-6.162-2.047-12.003-4.787-16.983c-12.264-22.284-36.99-15.968-46.409-15.756c3.414-7.113,3.658-21.891,3.658-32.911
	c56.528,0,42.373-100.201,35.153-121.09c-3.79-10.964-12.238-9.262-23.778-6.511c-2.15,0.514-5.487,1.194-8.445,2.542
	c-6.847,3.114-8.393,5.658-8.551,17.047L217.577,84.105z"/>
</svg>
