<?xml version="1.0" encoding="utf-8"?>
<!-- Generator: Adobe Illustrator 16.0.0, SVG Export Plug-In . SVG Version: 6.00 Build 0)  -->
<svg version="1.2" baseProfile="tiny" id="Layer_1" xmlns="http://www.w3.org/2000/svg" xmlns:xlink="http://www.w3.org/1999/xlink"
	 x="0px" y="0px" width="48px" height="48px" viewBox="0 0 48 48" xml:space="preserve">
<g>
	<path fill="none" d="M15.718,11.998L15.718,11.998l1.526,7.409c0.052,0.261,0.183,0.47,0.353,0.613
		c-0.169-0.144-0.3-0.353-0.352-0.613L15.718,11.998z"/>
	<path fill="none" d="M18.311,20.293c0.015,0.009,0.029,0.017,0.045,0.029l0,0C18.34,20.31,18.326,20.302,18.311,20.293z"/>
	<path fill="#FF9001" d="M31.02,46.121l3.862-32.976c0.104-0.626-0.418-1.148-1.044-1.148H17.694v0h0l1.248,6.285
		c1.047-2.222,3.266-3.775,5.869-3.883c3.721-0.078,6.897,2.79,7.053,6.509c0.154,3.797-2.712,6.897-6.511,7.052
		c-3.797,0.155-6.896-2.79-7.051-6.509c-0.016-0.385,0.008-0.761,0.054-1.129c-0.016-0.012-0.03-0.02-0.045-0.029
		c-0.069-0.038-0.127-0.052-0.127-0.052c-0.208,0-0.417-0.078-0.587-0.222s-0.3-0.353-0.353-0.613l-1.527-7.409l0,0v0h-3.899
		c-0.626,0-1.148,0.522-1.044,1.148l3.862,32.976C14.845,47.165,15.68,48,16.828,48h12.001C29.873,48,30.812,47.165,31.02,46.121z"
		/>
	<path fill="#FF9001" d="M25.276,27.03c3.177-0.155,5.733-2.79,5.656-6.044c-0.154-3.255-2.79-5.812-6.044-5.657
		c-3.255,0.155-5.735,2.867-5.657,6.044C19.387,24.628,22.099,27.107,25.276,27.03z M25.509,26.41l-0.155-4.494l3.255,3.1
		C27.833,25.791,26.748,26.333,25.509,26.41z M29.073,24.473l-3.255-3.022l4.494-0.155C30.235,22.458,29.771,23.621,29.073,24.473z
		 M30.235,20.753l-4.494,0.155l3.1-3.255C29.616,18.428,30.158,19.513,30.235,20.753z M28.375,17.189l-3.021,3.254l-0.155-4.494
		C26.36,16.026,27.523,16.414,28.375,17.189z M21.711,25.171l3.022-3.255l0.155,4.494C23.727,26.333,22.563,25.868,21.711,25.171z
		 M24.578,15.95l0.155,4.494l-3.255-3.1C22.253,16.568,23.338,16.026,24.578,15.95z M21.091,17.886l3.255,3.022l-4.494,0.155
		C19.929,19.901,20.394,18.738,21.091,17.886z M24.346,21.528l-3.1,3.255c-0.775-0.775-1.317-1.86-1.394-3.1L24.346,21.528z"/>
	<path fill="#F9D09B" d="M15.718,11.998L15.718,11.998h1.976l-1.388-6.992c-0.104-0.313-0.209-0.626-0.522-0.73L7.645,0.101
		C7.123-0.107,6.497-0.003,6.288,0.519s0,1.043,0.522,1.356l7.618,3.861L15.718,11.998L15.718,11.998L15.718,11.998z"/>
	<path fill="#FF9001" d="M17.245,19.406c0.052,0.261,0.183,0.47,0.352,0.613s0.378,0.222,0.587,0.222c0,0,0.058,0.014,0.127,0.052
		c0.015,0.009,0.029,0.017,0.045,0.029c0.089-0.722,0.289-1.408,0.586-2.039l-1.248-6.285h0l0,0h-1.976L17.245,19.406z"/>
	<path fill="#ED6E07" d="M24.346,21.528l-4.494,0.155c0.077,1.24,0.619,2.325,1.394,3.1L24.346,21.528z"/>
	<path fill="#ED6E07" d="M21.711,25.171c0.852,0.697,2.015,1.162,3.177,1.239l-0.155-4.494L21.711,25.171z"/>
	<path fill="#ED6E07" d="M21.091,17.886c-0.697,0.852-1.162,2.015-1.239,3.177l4.494-0.155L21.091,17.886z"/>
	<path fill="#ED6E07" d="M28.375,17.189c-0.852-0.775-2.015-1.163-3.177-1.24l0.155,4.494L28.375,17.189z"/>
	<path fill="#ED6E07" d="M24.578,15.95c-1.24,0.077-2.325,0.619-3.1,1.394l3.255,3.1L24.578,15.95z"/>
	<path fill="#ED6E07" d="M30.235,20.753c-0.077-1.24-0.619-2.325-1.395-3.1l-3.1,3.255L30.235,20.753z"/>
	<path fill="#ED6E07" d="M25.509,26.41c1.239-0.077,2.324-0.619,3.1-1.395l-3.255-3.1L25.509,26.41z"/>
	<path fill="#ED6E07" d="M18.356,20.322L18.356,20.322c-0.046,0.369-0.07,0.744-0.054,1.129c0.155,3.719,3.254,6.664,7.051,6.509
		c3.799-0.154,6.665-3.255,6.511-7.052c-0.155-3.719-3.332-6.587-7.053-6.509c-2.603,0.108-4.821,1.661-5.869,3.883
		C18.645,18.914,18.445,19.6,18.356,20.322z M24.889,15.329c3.254-0.155,5.89,2.402,6.044,5.657
		c0.077,3.254-2.479,5.889-5.656,6.044c-3.177,0.077-5.89-2.402-6.044-5.657C19.154,18.196,21.634,15.484,24.889,15.329z"/>
	<path fill="#ED6E07" d="M29.073,24.473c0.697-0.852,1.162-2.015,1.239-3.177l-4.494,0.155L29.073,24.473z"/>
</g>
</svg>
