<?xml version="1.0" encoding="utf-8"?>
<!-- Generator: Adobe Illustrator 16.0.0, SVG Export Plug-In . SVG Version: 6.00 Build 0)  -->
<svg version="1.2" baseProfile="tiny" id="Layer_1" xmlns="http://www.w3.org/2000/svg" xmlns:xlink="http://www.w3.org/1999/xlink"
	 x="0px" y="0px" width="48px" height="48px" viewBox="0 0 48 48" xml:space="preserve">
<g>
	<path fill="#D5AA5E" d="M12.147,23.718l0.521,0.138c3.636,0.965,7.757,2.061,12.315,2.061c4.22,0,8.077-1.045,11.479-1.966
		c0.451-0.122,0.892-0.242,1.324-0.357c6.336-1.676,9.686-3.979,9.686-6.661c0.001-1.945-1.121-2.634-4.285-2.634
		c-1.282,0-2.845,0.109-4.499,0.225c-2.701,0.188-6.067,0.274-10.917,0.274c-3.082,0-6.145-0.224-9.107-0.442
		c-1.548-0.112-3.011-0.22-4.421-0.291c-1.441-0.072-2.689-0.108-3.813-0.108c-5.741,0-8.415,0.946-8.415,2.976
		C2.016,19.58,5.614,21.989,12.147,23.718z M14.048,16.326c1.96-1.107,6.526-0.274,6.526-0.274s1.486,0.515,3.258,0.851
		c0.145-0.02,0.288-0.04,0.433-0.061c0.514-0.072,1.68-0.475,2.179-0.203c0.057,0.031,0.54,0.294,1.124,0.611
		c0.35,0.004,0.695-0.004,0.962-0.038c0.845-0.109,3.305-0.544,5.034-0.87c1.729-0.327,2.621-0.24,3.504,0.704
		c0.884,0.943-0.256,1.927-0.891,2.27c-1.148,0.62-2.69,0.653-4.112,0.907s-1.499,0.762-2.152,1.596
		c-0.652,0.834-0.845,1.052-2.65,1.378c-1.807,0.327-2.998,0.291-4.381,0c-1.383-0.29-0.941-1.206-0.538-1.704
		c0.042-0.052,0.103-0.099,0.172-0.144c-0.888-0.401-1.675-1.068-2.541-1.54c-0.071-0.042-0.128-0.14-0.179-0.257
		c-1.368,0.417-2.755,1.272-3.58,1.452c-0.999,0.218-2.02-0.165-3.057-0.963C12.12,19.244,12.088,17.432,14.048,16.326z"/>
	<path fill="#D5AA5E" d="M27.567,17.25c-0.584-0.317-1.067-0.581-1.124-0.611c-0.499-0.272-1.665,0.131-2.179,0.203
		c-0.145,0.021-0.288,0.041-0.433,0.061c0.713,0.135,1.472,0.242,2.199,0.273C26.031,17.176,26.807,17.242,27.567,17.25z"/>
	<path fill="#D5AA5E" d="M24.878,19.389c-0.461-0.327-2.613-0.254-4.227-0.037c-0.281,0.038-0.568,0.113-0.856,0.201
		c0.05,0.117,0.108,0.215,0.179,0.257c0.865,0.471,1.653,1.139,2.541,1.54c0.542-0.35,1.832-0.51,2.479-0.8
		C25.725,20.223,25.339,19.715,24.878,19.389z"/>
	<path fill="#D5AA5E" d="M1.477,36.754c0,3.022,3.606,5.659,9.619,7.25c3.688,0.976,8.146,1.668,12.959,1.668
		c4.812,0,9.343-0.423,13.03-1.399c5.929-1.569,9.369-4.417,9.465-7.393c-2.639,4.013-11.871,7.072-22.495,7.072
		c-11.324,0-20.739-3.439-22.46-7.923C1.525,36.252,1.477,36.488,1.477,36.754z"/>
	<path fill="#D5AA5E" d="M36.228,40.14c-3.718,0.984-8.249,1.504-13.103,1.504c-4.649,0-8.806-1.102-12.472-2.074l-0.448-0.119
		c-3.547-0.938-6.217-2.007-7.999-3.196c2.048,4.063,11.22,7.233,21.849,7.233c12.352,0,22.785-4.093,22.785-8.937
		c0-0.863-0.258-1.481-0.819-1.916c-0.037,0.044-0.073,0.089-0.111,0.134C45.6,35.825,41.96,38.622,36.228,40.14z"/>
	<path fill="#D5AA5E" d="M10.324,39.001l0.448,0.119c3.639,0.965,7.764,2.06,12.353,2.06c4.814,0,9.305-0.515,12.984-1.488
		c4.556-1.206,7.744-3.21,8.895-5.472c-1.802,1.413-4.503,2.654-7.892,3.55c-4.509,1.194-8.903,1.8-13.058,1.8
		c-4.064,0-8.332-0.605-13.044-1.854c-5.912-1.563-9.573-4.172-9.968-7.05C0.338,31.086,0,31.643,0,32.349
		C0,34.913,3.57,37.214,10.324,39.001z"/>
	<path fill="#D5AA5E" d="M47.041,30.146c0-0.088-0.005-0.173-0.011-0.255c-1.608,2.494-6.126,4.181-10.039,5.216
		c-3.368,0.892-7.98,2.113-12.936,2.113c-5.094,0-9.631-0.489-13.122-1.413c-4.631-1.227-8.034-3.263-9.454-5.526
		c0.112,2.806,3.696,5.41,9.65,6.986c4.674,1.235,8.902,1.837,12.926,1.837c4.115,0,8.469-0.6,12.938-1.783
		c4.219-1.116,7.346-2.747,8.915-4.553c0.038-0.045,0.074-0.09,0.111-0.134C46.684,31.828,47.041,30.989,47.041,30.146z"/>
	<path fill="#D5AA5E" d="M11.052,35.357c3.453,0.914,7.95,1.397,13.002,1.397c4.896,0,9.475-1.212,12.817-2.096
		c6.158-1.631,9.744-3.799,10.238-6.154c-1.59,1.693-4.688,3.175-9.198,4.369c-3.826,1.012-8.176,1.525-12.928,1.525h-0.094
		c-4.769,0-9.273,0-12.979-0.98c-5.788-1.532-9.344-4.213-9.665-7.233c-0.691,0.453-1.035,1.035-1.035,1.758
		C1.211,30.822,5.166,33.8,11.052,35.357z"/>
	<path fill="#D5AA5E" d="M37.128,31.222c-3.521,0.934-7.772,1.124-13.073,1.124c-4.467,0-8.943-0.561-12.943-1.619
		c-3.91-1.035-6.69-2.362-8.273-3.919c0.751,2.524,4.129,4.822,9.192,6.163c3.647,0.964,8.122,0.964,12.86,0.964l0.047,0.001
		c4.759,0,9.068-0.509,12.854-1.51c4.607-1.219,10.097-3.369,10.097-6.684c0-0.823-0.232-1.425-0.761-1.842
		C46.844,26.868,43.073,29.648,37.128,31.222z"/>
	<path fill="#D5AA5E" d="M1.467,21.336c0,2.89,3.774,5.756,9.614,7.301c3.851,1.019,8.337,1.558,12.974,1.558
		c5.065,0,9.566-0.482,13.016-1.396c5.438-1.438,9.204-4.16,9.658-6.906c-1.481,1.82-4.47,3.376-8.778,4.517
		c-4.184,1.106-8.321,2.101-12.966,2.101c-5.001,0-9.577-1.042-13.006-1.949c-5.74-1.52-9.355-3.739-10.252-6.215
		C1.554,20.636,1.467,20.964,1.467,21.336z"/>
	<path fill="#D5AA5E" d="M12.097,26.111c3.402,0.9,7.941,1.935,12.887,1.935c4.59,0,8.697-0.987,12.849-2.085
		c6.135-1.624,9.514-4.048,9.514-6.827c0-0.053-0.004-0.101-0.006-0.153c-1.236,2.029-4.392,3.726-9.434,5.062
		c-0.431,0.113-0.872,0.232-1.321,0.354c-3.432,0.931-7.32,1.983-11.601,1.983c-4.619,0-8.771-1.104-12.435-2.075l-0.521-0.138
		c-5.376-1.424-8.822-3.341-10.009-5.514c-0.038,0.154-0.064,0.313-0.064,0.481C1.956,21.823,5.747,24.432,12.097,26.111z"/>
	<path fill="#D5AA5E" d="M37.189,29.249c-3.489,0.923-8.03,1.411-13.135,1.411c-4.676,0-9.204-0.544-13.091-1.573
		c-4.525-1.197-7.78-3.125-9.186-5.316c0.179,2.666,3.432,4.912,9.454,6.506c3.961,1.049,8.396,1.603,12.825,1.603
		c5.264,0,9.482-0.188,12.954-1.105c5.973-1.582,9.683-4.354,9.683-7.235c0-0.05-0.004-0.095-0.006-0.143
		C45.406,25.811,41.964,27.985,37.189,29.249z"/>
	<path fill="#813A16" d="M16.215,21.005c0.825-0.18,2.212-1.035,3.58-1.452c0.288-0.088,0.575-0.163,0.856-0.201
		c1.614-0.217,3.766-0.29,4.227,0.037c0.461,0.326,0.847,0.834,0.115,1.16c-0.646,0.29-1.937,0.45-2.479,0.8
		c-0.069,0.045-0.13,0.092-0.172,0.144c-0.403,0.498-0.845,1.414,0.538,1.704c1.383,0.291,2.575,0.327,4.381,0
		c1.806-0.326,1.998-0.544,2.65-1.378c0.653-0.834,0.73-1.342,2.152-1.596s2.964-0.287,4.112-0.907
		c0.635-0.343,1.774-1.327,0.891-2.27c-0.883-0.944-1.775-1.031-3.504-0.704c-1.729,0.326-4.189,0.761-5.034,0.87
		c-0.267,0.034-0.612,0.042-0.962,0.038c-0.761-0.008-1.536-0.074-1.536-0.074c-0.728-0.031-1.486-0.138-2.199-0.273
		c-1.771-0.335-3.258-0.851-3.258-0.851s-4.566-0.833-6.526,0.274c-1.96,1.106-1.928,2.918-0.89,3.716
		C14.195,20.84,15.216,21.223,16.215,21.005z"/>
</g>
</svg>
