<?xml version="1.0" encoding="utf-8"?>
<!-- Generator: Adobe Illustrator 16.0.0, SVG Export Plug-In . SVG Version: 6.00 Build 0)  -->
<svg version="1.2" baseProfile="tiny" id="Layer_1" xmlns="http://www.w3.org/2000/svg" xmlns:xlink="http://www.w3.org/1999/xlink"
	 x="0px" y="0px" width="48px" height="48px" viewBox="0 0 48 48" xml:space="preserve">
<g>
	<path fill="#FF7B22" d="M28.982,17.522c0,0,0.025-0.022,0.061-0.054l-0.065-0.062c-7.351-6.45-10.529-3.272-10.529-3.272
		s-4.743,6.545-5.787,7.921c-1.044,1.375,0.527,1.628,2.466,2.964c2.893,1.992,1.802,4.245,1.802,4.245s-1.541-2.42-4.363-2.68
		c-2.377-0.219-3.083,1.399-3.083,1.399L1.42,43.209c0,0-2.181,3.556-1.138,4.315c1.043,0.759,3.984-0.76,3.984-0.76
		s10.695-5.534,12.284-6.664c3.201-2.275-1.352-6.188-1.352-6.188c1.044,0.047,2.466,0.9,3.842,2.419
		c1.375,1.518,3.414,0.995,3.414,0.995s2.538-1.471,3.629-2.229c1.091-0.759,1.896-1.138,2.086-2.561s-1.47-4.126-1.47-4.126
		c2.419,0,3.843,3.177,3.843,3.177l3.318-2.323c3.021-2.84-2.603-9.566-3.168-10.227c-0.033,0.031-0.052,0.049-0.052,0.049
		S29.366,17.953,28.982,17.522z"/>
	<path fill="#009245" d="M47.431,18.043c0-0.756-1.72-1.482-2.414-1.744c0.232,0.038,0.508-0.054,0.422-0.769
		c-0.143-1.185-3.841-1.28-3.841-1.28c-0.332-2.277-6.641-0.048-6.641-0.048c1.044-1.755,4.174-2.324,5.454-2.846
		c1.281-0.522,0.759-1.091,0.759-1.091s2.798-0.19,3.272-0.996s-0.615-1.66-0.615-1.66s1.944,0.142,2.323-0.996
		c0.379-1.138-0.617-1.423-0.617-1.423s1.661-1.992-0.189-2.94c-1.85-0.949-2.514,0.616-2.514,0.616s-0.284-1.422-1.47-0.806
		c-1.187,0.617-0.949,2.372-0.949,2.372c-2.087-1.044-2.134,2.276-2.134,2.276c-1.28-0.569-1.85,0.806-2.086,2.229
		c-0.238,1.423-2.562,4.411-2.562,4.411c1.327-4.696,0.521-7.115,0.521-7.115c-0.379-4.932-2.466-3.319-2.466-3.319
		c0.095-1.613-0.427-1.945-1.232-1.945c-0.807,0-0.76,0.806-0.76,0.806s-0.396-1.991-1.422-1.612c-0.902,0.332,0,1.233,0,1.233
		s-1.852-1.613-2.704,0.047c-0.769,1.493,1.707,3.463,1.707,3.463s-3.036-0.19-2.798,1.28c0.236,1.471,2.039,1.376,2.039,1.376
		c-1.424,1.802,1.756,1.992,1.756,1.992c-0.996,1.422,1.422,1.375,1.422,1.375c-0.569,0.664,0.379,1.234,0.379,1.234
		c1.341,2.984-0.664,4.976-1.029,5.305c-0.035,0.032-0.061,0.054-0.061,0.054c0.384,0.43,1.659,1.565,1.659,1.565
		s0.019-0.019,0.052-0.049c0.222-0.204,1.2-1.015,3.221-1.468c2.324-0.521,2.941,0.712,2.941,0.712
		c1.043,2.798,1.943,0.806,1.943,0.806s-0.615,2.229,0.522,2.608c0.95,0.317,1.171-0.09,1.219-0.234
		c-0.085,0.296-0.475,1.942,1.295,1.942c1.944,0,0.901-3.7,0.901-3.7s1.091,2.988,2.797,2.798c1.708-0.19,0.807-2.845,0.807-2.845
		s0.664,0.948,0.901,0.095c0.204-0.736-0.646-1.258-0.885-1.389C46.592,18.484,47.431,18.86,47.431,18.043z"/>
</g>
</svg>
