<?xml version="1.0" encoding="utf-8"?>
<!-- Generator: Adobe Illustrator 16.0.0, SVG Export Plug-In . SVG Version: 6.00 Build 0)  -->
<svg version="1.2" baseProfile="tiny" id="Layer_1" xmlns="http://www.w3.org/2000/svg" xmlns:xlink="http://www.w3.org/1999/xlink"
	 x="0px" y="0px" width="651.569px" height="223.517px" viewBox="0 0 651.569 223.517" xml:space="preserve">
<path fill-rule="evenodd" d="M640.531,122.293C594.231,59.294,495.318,86.9,426.57,46.553
	C395.002,28.148,362.732,14.7,330.463,7.622c-23.852-7.787-49.105-9.911-74.36-4.956l-16.135,3.54
	c-15.433,3.539-30.165,9.202-44.195,16.988l-59.629,29.73L67.396,87.608c-18.24,9.91-35.777,22.651-50.509,37.517v5.662l4.209,2.832
	l0.702,0.708c2.806,2.123,7.015,2.123,9.821,0l2.104-0.708c14.031-9.91,30.165-16.989,47.703-21.236h24.553
	c5.612,0,10.523-1.416,14.732-4.247h30.165c17.537,0,32.269,10.618,39.285,25.483l-3.508,2.831l4.91,1.416
	c0,0.708,0.702,1.416,0.702,2.123l-8.418,6.371l7.015,1.416l-10.523,7.786l7.717,2.124l-10.523,7.786l7.717,2.124l-10.523,7.786
	l7.717,2.124l-10.523,7.786l8.418,2.124l-10.522,7.785l8.418,2.124l-23.852,12.033v9.202H208.4l1.403-4.955l7.015,4.248
	l-1.403-12.742l7.015,4.247l-1.403-12.741l7.015,4.247l-1.403-12.74l7.015,4.247l-1.403-12.742l7.015,4.248l-1.403-12.742
	l7.015,4.247l-1.403-12.741l7.015,4.247l-1.403-13.449l3.508,2.123l11.926,43.887l-14.732,10.618v7.787h51.912l-1.403-21.236
	l1.403-63.707l7.015-4.955h0.701l-0.701,7.786l9.821-7.078h0.702l-0.702,7.786l7.015-4.955l2.105,2.832l24.553,74.324l-13.329,7.079
	v7.786h42.092l23.851-95.56l0.701-8.494c1.403-7.787,2.104-15.573,1.403-22.652c1.402,0.708,2.807,0.708,4.209,1.416l14.731,46.718
	v-36.1l14.732,48.134v-35.393l15.433,47.426v-36.808l14.732,48.134v-36.1l15.433,50.257v-42.472l14.031,45.303v-42.472
	l14.029,45.303v-46.01l14.732,47.426v-46.719l14.731,46.011v-44.595l14.029,42.471v-45.302l14.031,43.179v-45.303l13.328,42.471
	l-0.701-44.594h0.701l11.926,43.18l4.209-46.719h1.403l8.418,43.887l5.611-46.01l9.822,40.348l2.806-45.303l13.328,38.224
	l-0.7-33.977l8.418,25.483C650.353,168.305,656.666,145.653,640.531,122.293"/>
<path fill-rule="evenodd" d="M18.213,130.331l3.56,2.443l-3.274,2.116c-1.472,0.95-9.073,18.494-13.763,42.572
	c-3.153,16.191-4.364,43.197-3.876,40.564C-1.821,198.688,2.372,160.303,18.213,130.331"/>
<path fill="none" stroke="#000000" stroke-width="0.216" stroke-miterlimit="2.613" d="M18.213,130.331l3.56,2.443l-3.274,2.116
	c-1.472,0.95-9.073,18.494-13.763,42.572c-3.153,16.191-4.364,43.197-3.876,40.564C-1.821,198.688,2.372,160.303,18.213,130.331z"/>
<path fill-rule="evenodd" fill="#FFFFFF" d="M106.144,92.208c3.674,0,6.671-2.732,6.671-6.082s-2.997-6.082-6.671-6.082
	c-3.674,0-6.671,2.732-6.671,6.082S102.469,92.208,106.144,92.208"/>
</svg>
